<svg fill="none" version="1.1" viewBox="0 0 16 16" xmlns="http://www.w3.org/2000/svg" xmlns:xlink="http://www.w3.org/1999/xlink">
    <defs>
        <linearGradient id="a" x1="3.2983" x2="12.603" y1="8.1476" y2="8.1476" gradientTransform="matrix(1.1412 0 0 1.1142 -1.1032 -.79233)" gradientUnits="userSpaceOnUse">
            <stop offset="0"/>
            <stop stop-opacity="0" offset="1"/>
        </linearGradient>
    </defs>
    <rect transform="rotate(0,0,0)" x="8" y="1" width=".1" height="1" stroke="#000"/>
    <rect transform="rotate(45,8,8)" x="8" y="1" width=".1" height="1" stroke="#000"/>
    <rect transform="rotate(90,8,8)" x="8" y="1" width=".1" height="1" stroke="#000"/>
    <rect transform="rotate(135,8,8)" x="8" y="1" width=".1" height="1" stroke="#000"/>
    <rect transform="rotate(180,8,8)" x="8" y="1" width=".1" height="1" stroke="#000"/>
    <rect transform="rotate(225,8,8)" x="8" y="1" width=".1" height="1" stroke="#000"/>
    <rect transform="rotate(270,8,8)" x="8" y="1" width=".1" height="1" stroke="#000"/>
    <rect transform="rotate(315,8,8)" x="8" y="1" width=".1" height="1" stroke="#000"/>
    <ellipse cx="8" cy="8" rx="4.5" ry="4.5" fill="url(#a)" fill-rule="evenodd" stroke="#000" stroke-width="1"/>
</svg>
