<svg fill="none" version="1.1" viewBox="0 0 16 16" xmlns="http://www.w3.org/2000/svg">
    <rect transform="rotate(45)" x="10.81" y="-7.0101" width="1.1393" height="14.052" fill="none" stroke="#000" stroke-width=".8802"/>
    <rect transform="rotate(-45)" x="-.6287" y="4.2969" width="1.1482" height="14.162" fill="none" stroke="#000" stroke-width=".88708"/>
    <path d="m0.79225 0.79552v3.0581c0.51177-0.49496 2.6242-2.553 3.0712-3.0581z" stroke="#000" stroke-width="1.1565"/>
    <path d="m15.175 0.81969h-3.0571c0.4948 0.51879 2.5521 2.6602 3.0571 3.1133z" stroke="#000" stroke-width="1.1642"/>
    <path d="m0.79816 15.248h3.2027c-0.51836-0.51836-2.6737-2.658-3.2027-3.1108z" stroke="#000" stroke-width="1.1911"/>
    <path d="m15.229 15.254v-3.0583c-0.495 0.495-2.5382 2.5531-2.9706 3.0583z" stroke="#000" stroke-width="1.1374"/>
    <path d="m1.3906 1.8935v-0.51853h1.0772l-0.39016 0.39281c-0.21459 0.21604-0.45695 0.44938-0.53859 0.51854l-0.14844 0.12573z" fill="#000" stroke="#000" stroke-width=".03125"/>
    <path d="m0.20312 13.356v-2.4882l0.21094 0.18297c0.11602 0.10063 0.37266 0.32322 0.57031 0.49465 0.19766 0.17143 0.53255 0.47309 0.74421 0.67036l0.38484 0.35868 4.4802-4.4802-2.2967-2.2969c-1.2632-1.2633-2.3066-2.2969-2.3186-2.2969s-0.4058 0.37226-0.87508 0.82724l-0.85323 0.82724-0.008003-2.4573c-0.004402-1.3515-0.003143-2.4621 0.002797-2.4681 0.00594-0.00594 1.1021-0.007198 2.436-0.002795l2.4252 0.0080057-0.51641 0.57812c-0.28402 0.31797-0.66634 0.72941-0.8496 0.91432l-0.33319 0.33619 4.6088 4.6088 4.5611-4.5624-0.87432-0.91214c-0.48087-0.50168-0.87432-0.92004-0.87432-0.92969s1.1039-0.017549 2.4531-0.017549h2.4531v4.9422l-0.47656-0.43181c-0.26211-0.2375-0.65938-0.61078-0.88281-0.82951l-0.40625-0.3977-4.5469 4.5448 4.5778 4.5782 1.7972-1.7964v4.9527h-2.3632c-2.2461 0-2.3611-0.0027-2.3206-0.05469 0.11648-0.14956 0.88873-1.0329 1.1634-1.3306l0.31214-0.33845-4.5885-4.5888-4.4686 4.4686 1.8744 1.8752h-5.2027zm14.469 0.76196v-0.56998l-0.54688 0.5462c-0.30078 0.30041-0.54688 0.5569-0.54688 0.56998 0 0.01308 0.24609 0.02377 0.54688 0.02377h0.54688zm-12.094 0.52721c0-0.0063-0.26719-0.26797-0.59375-0.58142l-0.59375-0.5699v1.1628h0.59375c0.32656 0 0.59375-0.0052 0.59375-0.01152zm10.142-1.8644 0.09074-0.09471-3.9963-3.9967-0.2063 0.19995 1.9929 1.9931c1.0961 1.0962 2.0009 1.9931 2.0106 1.9931 0.0097 0 0.05851-0.04262 0.10842-0.09471zm-7.2668-1.9207 1.9527-1.9529-0.21875-0.21875-3.9348 3.9352 0.090734 0.09471c0.049904 0.05209 0.10572 0.09471 0.12404 0.09471 0.01832 0 0.91204-0.87881 1.986-1.9529zm2.6722-2.6722 0.089959-0.093897-0.21192-0.21865-0.2065 0.20014 0.099978 0.10315c0.054988 0.056733 0.10865 0.10315 0.11925 0.10315 0.0106 0 0.059755-0.042254 0.10923-0.093897zm-0.81172-0.81331 0.090735-0.094708-3.9963-3.9967-0.2063 0.19995 1.9929 1.9931c1.0961 1.0962 2.0009 1.9931 2.0106 1.9931 0.00973 0 0.058513-0.042618 0.10842-0.094707zm3.5139-1.8889 1.9834-1.9836-0.10758-0.11099-0.10758-0.11099-3.9848 3.9844 0.099193 0.10234c0.054556 0.056288 0.10702 0.10234 0.11659 0.10234 0.00957 0 0.90992-0.89261 2.0008-1.9836zm3.7821-3.5164v-0.59375h-0.5625c-0.30938 0-0.5625 0.011808-0.5625 0.026241 0 0.025888 1.0874 1.1613 1.1122 1.1613 7e-3 0 0.01279-0.26719 0.01279-0.59375zm-12.094-0.59812c0-0.014786-0.26016-0.026884-0.57812-0.026884h-0.57812v1.1625l0.57812-0.55435c0.31797-0.30489 0.57812-0.56645 0.57812-0.58123z" fill="#000" stroke="#000" stroke-width=".03125"/>
    <path d="m0.20312 13.355c0-2.3675 0.002674-2.487 0.054688-2.4429 0.40403 0.34251 1.3391 1.1701 1.5647 1.3848l0.29123 0.27723 4.4799-4.4799-2.2967-2.2969c-1.2632-1.2633-2.3038-2.2967-2.3124-2.2964s-0.40242 0.37326-0.87508 0.82879l-0.85938 0.82824-0.008003-2.4588c-0.004402-1.3523-0.003143-2.4637 0.002797-2.4696 0.00594-0.00594 1.1039-0.007198 2.44-0.002795l2.4292 0.0080057-0.48951 0.54688c-0.26923 0.30078-0.65335 0.71221-0.8536 0.91429l-0.36409 0.36742 4.6088 4.6088 2.2662-2.2656c1.2464-1.2461 2.2624-2.2814 2.2578-2.3008-0.004597-0.0194-0.38805-0.43218-0.85211-0.9173-0.46406-0.48511-0.84844-0.89463-0.85417-0.91004-0.006087-0.016373 1.0102-0.028017 2.4453-0.028017h2.4557v4.9498l-0.10156-0.094122c-0.055859-0.051768-0.34062-0.31345-0.63281-0.58152-0.29219-0.26807-0.63637-0.5941-0.76484-0.72451-0.12848-0.13041-0.24804-0.23711-0.26571-0.23711-0.01766 0-1.0481 1.0161-2.2898 2.2579l-2.2577 2.2579 2.2735 2.2734c1.2504 1.2503 2.2875 2.2734 2.3045 2.2734 0.01703 0 0.42832-0.39717 0.91398-0.88261l0.88302-0.88261v4.9527h-2.3612c-1.8805 0-2.3565-8e-3 -2.338-0.03906 0.0407-0.0685 0.98659-1.15 1.2438-1.4221l0.2477-0.26205-4.589-4.5894-4.4686 4.4686 1.8744 1.8752h-5.2027zm14.469 0.78609c0-0.30078-0.01074-0.54688-0.02387-0.54688-0.0221 0-0.67768 0.65651-0.95958 0.96094l-0.12299 0.13281h1.1064zm-12.13 0.4905c-0.015551-0.037503-1.1082-1.0999-1.1312-1.0999-0.010899 0-0.019816 0.25312-0.019816 0.5625v0.5625h0.58073c0.3194 0 0.57604-0.01131 0.57031-0.02512zm10.178-1.8508 0.090735-0.094708-3.9963-3.9967-0.2063 0.19995 1.9929 1.9931c1.0961 1.0962 2.0009 1.9931 2.0106 1.9931 0.0097 0 0.05851-0.04262 0.10842-0.09471zm-6.6426-2.543 1.3271-1.3292-0.090712-0.094684c-0.049892-0.052076-0.1057-0.094684-0.12402-0.094684-0.01832 0-0.91117 0.87795-1.9841 1.951l-1.9508 1.951 0.20582 0.19226 0.64487-0.62323c0.35468-0.34278 1.242-1.2214 1.9719-1.9524zm2.0479-2.0498 0.089818-0.09375-0.089818-0.09375c-0.0494-0.051562-0.10386-0.09375-0.12102-0.09375-0.041952 0-0.17586 0.12777-0.17586 0.1678 0 0.034882 0.15594 0.2072 0.1875 0.2072 0.010756 0 0.059975-0.042188 0.10938-0.09375zm-0.81158-0.81346 0.090735-0.094708-3.9963-3.9967-0.2063 0.19995 1.9929 1.9931c1.0961 1.0962 2.0009 1.9931 2.0106 1.9931 0.00973 0 0.058513-0.042618 0.10842-0.094707zm3.5451-1.9182 1.9523-1.9535-0.090957-0.094938c-0.050026-0.052216-0.10586-0.094938-0.12408-0.094938-0.04104 0-3.9552 3.9103-3.9552 3.9513 0 0.016298 0.037209 0.068471 0.082686 0.11594 0.061 0.06367 0.095833 0.078865 0.13281 0.057935 0.027569-0.015604 0.92866-0.90743 2.0024-1.9818zm3.7508-3.5044v-0.57977l-0.5625 0.00545c-0.30938 3e-3 -0.5625 0.012484-0.5625 0.021086 0 0.028853 1.0695 1.133 1.0974 1.133 0.01518 0 0.0276-0.2609 0.0276-0.57977zm-12.656-0.033316c0.3006-0.30282 0.52303-0.53837 0.49431-0.52344-0.028729 0.014932-0.27834 0.2497-0.55469 0.52172l-0.50245 0.49457v-1.0344l0.98438-0.018918-1.0156-0.013919v0.5625c0 0.30938 0.010698 0.5625 0.023772 0.5625 0.013075 0 0.26972-0.24776 0.57031-0.55059z" fill="#000" stroke="#000" stroke-width=".03125"/>
    <path d="m5.2253 5.444-1.962-1.9622 0.14502-0.13624 1.9661 1.9663c1.9486 1.9488 1.9656 1.9669 1.9082 2.0303-0.031861 0.035206-0.066337 0.06401-0.076615 0.06401s-0.90159-0.88299-1.9807-1.9622z" fill="#000" stroke="#000" stroke-width=".03125"/>
    <path d="m5.2406 5.4281c-1.863-1.8632-1.9443-1.9492-1.8887-1.9995 0.055474-0.050203 0.14315 0.032766 1.9887 1.8819 1.8572 1.8608 1.9975 2.0143 1.8781 2.0541-0.017226 0.0057341-0.90736-0.8657-1.9781-1.9365z" fill="#000" stroke="#000" stroke-width=".03125"/>
    <path d="m0.20312 13.358c0-2.4706 3.8554e-4 -2.4859 0.061809-2.4429 0.10977 0.07688 1.2247 1.0606 1.5437 1.3621l0.3095 0.29245 4.4756-4.4776-4.6135-4.6021-0.34948 0.34198c-0.19221 0.18809-0.58151 0.56661-0.8651 0.84116l-0.51562 0.49919-0.008003-2.466c-0.004402-1.3563-0.003143-2.4708 0.002797-2.4768 0.00594-0.00594 1.1062-0.007198 2.4451-0.002795l2.4343 0.0080057-0.43492 0.48438c-0.2392 0.26641-0.62542 0.67805-0.85826 0.91477l-0.42335 0.4304 4.6078 4.6078 1.5177-1.5156c0.83473-0.83355 1.8541-1.8617 2.2653-2.2848l0.7476-0.7692-0.85808-0.90268c-0.47194-0.49647-0.85849-0.91322-0.85899-0.92611-5.03e-4 -0.012891 1.103-0.023438 2.4522-0.023438h2.4531v4.9431l-0.10156-0.084809c-0.055859-0.046645-0.34497-0.31157-0.64246-0.58872-0.2975-0.27715-0.65162-0.60681-0.78694-0.73257l-0.24604-0.22867-2.2521 2.2408c-1.2387 1.2324-2.2521 2.2575-2.2521 2.278s1.0202 1.0538 2.2671 2.2964l2.2671 2.2592 0.39698-0.38374c0.21834-0.21106 0.62549-0.61604 0.90479-0.89996l0.50781-0.51622v4.9798h-2.362c-1.3921 0-2.3577-0.01159-2.3516-0.02821 0.01608-0.04355 0.91416-1.0738 1.2245-1.4047l0.2766-0.29494-2.2765-2.2767c-1.2521-1.2522-2.2907-2.2767-2.3079-2.2767-0.017277 0-1.0298 0.99841-2.2499 2.2187l-2.2185 2.2187 1.8743 1.8751h-5.2027zm14.467 0.78343-0.0038-0.54646-0.09894 0.07567c-0.10723 0.08202-0.95831 0.96932-0.95831 0.9991 0 0.01 0.23959 0.01815 0.53242 0.01815h0.53242zm-12.517 0.10424c-0.22179-0.22323-0.48411-0.4766-0.58294-0.56304l-0.17969-0.15717v1.1334l1.1659-0.0074zm10.582-1.4808 0.0745-0.0793-1.983-1.9832c-1.0907-1.0908-1.9962-1.9832-2.0124-1.9832-0.043091 0-0.17398 0.12987-0.17398 0.17263 0 0.051556 3.926 3.9524 3.9779 3.9524 0.02333 0 0.07594-0.03568 0.11691-0.0793zm-6.0893-3.1238 0.74032-0.75-0.18394-0.18687-3.9193 3.9193 0.18331 0.19134 1.2196-1.2119c0.6708-0.66653 1.5528-1.5494 1.96-1.9619zm1.4731-1.4784 0.084099-0.087781-0.094575-0.090608-0.094575-0.090609-0.18874 0.18874 0.066088 0.084017c0.083518 0.10618 0.123 0.10552 0.22771-0.00376zm-0.79006-0.80402 0.074496-0.079297-1.983-1.9832c-1.0907-1.0908-1.9962-1.9832-2.0123-1.9832-0.043171 0-0.17398 0.12991-0.17398 0.17278 0 0.051392 3.9266 3.9522 3.9783 3.9522 0.023107 0 0.075535-0.035684 0.11651-0.079297zm3.4962-1.8929 1.979-1.9722-0.19562-0.19563-3.9713 3.9713 0.066339 0.084336c0.036486 0.046385 0.083478 0.084336 0.10443 0.084336 0.020948 0 0.92866-0.88748 2.0171-1.9722zm3.7731-3.5044-0.0047-0.57031-0.3125-0.00989c-0.17188-0.00544-0.41441-7.287e-4 -0.53897 0.01047-0.22396 0.020136-0.22595 0.021106-0.1795 0.087428 0.04134 0.059015 1.0172 1.0526 1.0339 1.0526 0.0036 0 0.0044-0.25664 0.0018-0.57031zm-12.692 0.0054049c0.1375-0.14136 0.20781-0.22777 0.15625-0.19202-0.051562 0.035749-0.23438 0.20904-0.40625 0.3851-0.18971 0.19433-0.25111 0.26978-0.15625 0.19202 0.085938-0.070444 0.26875-0.24374 0.40625-0.3851z" fill="#000" stroke="#000" stroke-width=".03125"/>
    <path d="m0.20312 13.358c0-2.1359 0.006235-2.4824 0.044281-2.4609 0.063012 0.03556 1.0941 0.93966 1.5019 1.317 0.1887 0.17457 0.35745 0.31749 0.375 0.31759 0.017547 1e-4 1.0258-1.0019 2.2405-2.2266l2.2086-2.2267-0.30235-0.30694c-0.16629-0.16882-1.1988-1.1936-2.2945-2.2773-1.8508-1.8305-1.9965-1.9673-2.0529-1.9274-0.033407 0.023587-0.42716 0.39964-0.87502 0.83568l-0.81428 0.7928v-4.9762h4.9108l-0.3734 0.41499c-0.20537 0.22824-0.59152 0.64625-0.85811 0.9289l-0.48472 0.51392 4.589 4.5953 2.2475-2.2656c1.2361-1.2461 2.2479-2.2797 2.2485-2.2969s-0.37858-0.43201-0.84244-0.92182c-0.46386-0.48981-0.84339-0.90114-0.84339-0.91406 0-0.012921 1.1039-0.023492 2.4531-0.023492h2.4531v2.4726c0 2.3502-0.0027 2.4705-0.05469 2.4301-0.08888-0.069059-1.1224-1.0204-1.4286-1.315l-0.28236-0.27168-4.5156 4.5119 4.5466 4.5469 1.7972-1.7964v4.984h-2.362c-1.4945 0-2.3582-0.01101-2.3516-0.02998 0.01413-0.04067 0.76102-0.90497 1.1488-1.3294 0.17274-0.18906 0.31422-0.35786 0.3144-0.37512 2.92e-4 -0.02784-1.8657-1.8974-3.8434-3.8507l-0.70312-0.69447-4.4448 4.4288 1.8822 1.8822h-5.2342zm14.469 0.84786c0-0.265-0.0091-0.5054-0.02011-0.53423-0.01563-0.04073-0.13363 0.06095-0.52954 0.45632-0.28019 0.2798-0.50234 0.5202-0.49367 0.53423 0.0087 0.01402 0.24696 0.0255 0.52954 0.0255h0.51378zm-12.193 0.4235c0.029665-0.018811-0.10982-0.1716-0.49883-0.5464-0.29701-0.28616-0.55108-0.52028-0.56462-0.52028-0.013532 0-0.024604 0.24609-0.024604 0.54688v0.54688l0.52344-4.78e-4c0.28789-2.64e-4 0.54197-0.01223 0.56462-0.02659zm10.237-1.8695 0.08407-0.08407-0.94699-0.94923c-0.52085-0.52207-1.4198-1.4123-1.9976-1.9782l-1.0506-1.029-0.16784 0.16784 1.9782 1.9784c1.088 1.0881 1.9869 1.9784 1.9975 1.9784 0.0106 0 0.0571-0.03783 0.10334-0.08407zm-7.285-1.9096c1.3034-1.3036 1.925-1.946 1.9126-1.9766-0.010112-0.024942-0.050589-0.068839-0.08995-0.09755-0.071208-0.051939-0.081301-0.042463-2.0208 1.8973l-1.9493 1.9495 0.074495 0.0793c0.040972 0.04361 0.089664 0.0793 0.1082 0.0793 0.01854 0 0.90267-0.86905 1.9647-1.9312zm2.6683-2.668c0.094615-0.088887 0.091232-0.13308-0.016032-0.20946l-0.088359-0.062917-0.16605 0.16605 0.083482 0.087137c0.10023 0.10462 0.096441 0.10423 0.18696 0.01919zm-0.7894-0.82885 0.084301-0.084301-1.4004-1.3929c-0.77019-0.76608-1.6685-1.6567-1.9962-1.9793l-0.59586-0.58639-0.17722 0.16424 1.9813 1.9814c1.0897 1.0898 1.9899 1.9814 2.0005 1.9814 0.010598 0 0.057204-0.037935 0.10357-0.084301zm3.5014-1.8835 1.9676-1.9678-0.1833-0.19133-3.9536 3.9533 0.08318 0.086821c0.045749 0.047752 0.091138 0.086821 0.10086 0.086821 0.00973 0 0.90311-0.88551 1.9853-1.9678zm3.7868-3.2088c0.0088-0.11771 0.0066-0.35686-0.0049-0.53144l-0.02095-0.31742-0.20813-0.017926c-0.11447-0.00986-0.35436-0.00764-0.53308 0.00492l-0.32496 0.022849 0.52447 0.54007c0.28846 0.29704 0.53057 0.53397 0.53802 0.52652 0.0075-0.00745 0.02075-0.10986 0.02956-0.22757z" fill="#000" stroke="#000" stroke-width=".03125"/>
    <path d="m0.20312 13.358c0-2.3576 0.002814-2.4839 0.054688-2.4558 0.066628 0.03615 1.0887 0.93076 1.5333 1.342l0.32235 0.29822 4.449-4.4494-2.2665-2.2654c-1.2466-1.246-2.2894-2.2654-2.3175-2.2654-0.028048 0-0.42844 0.36441-0.88975 0.80979l-0.83876 0.80979-0.0080018-2.4711c-0.004401-1.3591-0.003143-2.4759 0.002796-2.4819 0.005939-0.005939 1.11-0.007196 2.4534-0.002793l2.4426 0.0080036-0.41035 0.45312c-0.22569 0.24922-0.60775 0.6617-0.84901 0.91663l-0.43866 0.46351 4.5729 4.5729 2.002-1.9999c1.1011-1.1 2.1148-2.1226 2.2526-2.2725l0.2506-0.27258-0.84635-0.89705c-0.46549-0.49338-0.84635-0.9086-0.84635-0.92273 0-0.014125 1.1039-0.025682 2.4531-0.025682h2.4531v2.4688c0 1.3578-0.0073 2.4688-0.01628 2.4688-0.02201 0-0.9797-0.87569-1.3927-1.2734-0.18292-0.17617-0.34507-0.32031-0.36033-0.32031-0.01526 0-1.0367 1.009-2.2699 2.2423l-2.2421 2.2423 2.2579 2.2577c1.2418 1.2418 2.2718 2.2577 2.2889 2.2577 0.01703 0 0.42832-0.39717 0.91398-0.88261l0.88302-0.88261v4.984h-2.3594c-1.2977 0-2.3594-0.01112-2.3594-0.02472 0-0.02855 0.80439-0.96189 1.207-1.4005l0.27312-0.29754-2.2634-2.2636c-1.2449-1.245-2.2776-2.2636-2.2949-2.2636-0.017278 0-1.0227 0.99138-2.2343 2.2031l-2.2029 2.2031 1.8743 1.8751h-5.234zm14.453 0.8236c-2.27e-4 -0.2695-0.01215-0.50153-0.0265-0.51562-0.01435-0.0141-0.24568 0.19932-0.51408 0.47426-0.57083 0.58474-0.58002 0.54342 0.11911 0.5359l0.42188-0.0045zm-12.296 0.44623 0.14062-0.023508-0.53125-0.51897c-0.47128-0.46039-0.53354-0.51127-0.55157-0.45074-0.027163 0.0912-0.032209 0.97404-0.00572 1.0005 0.027986 0.02798 0.77106 0.02226 0.94792-0.0073zm8.438-3.9245-1.9831-1.9833-0.088496 0.084785-0.088496 0.084784 3.9742 3.9659 0.16892-0.16892zm-5.3649 0.14087 1.9426-1.9368-0.16798-0.16802-0.27538 0.25315c-0.15146 0.13923-1.0342 1.0129-1.9616 1.9415l-1.6862 1.6883 0.074488 0.07929c0.040968 0.04361 0.087337 0.07929 0.10304 0.07929 0.015705 0 0.90271-0.87155 1.9711-1.9368zm2.7083-2.7039c0.035876-0.043228 0.029924-0.062252-0.04197-0.13415-0.066026-0.066026-0.094847-0.076791-0.13604-0.050809-0.10892 0.068707-0.12143 0.13048-0.043268 0.21368 0.077649 0.082654 0.13502 0.075207 0.22127-0.028721zm-2.7496-2.8432-1.9831-1.9833-0.0888 0.085076-0.0888 0.085075 3.9762 3.964 0.16759-0.16759zm5.8576-0.26294 1.53-1.5321-0.07448-0.079283c-0.04097-0.043606-0.08957-0.079283-0.108-0.079283-0.04111 0-3.9243 3.8787-3.9243 3.9198 0 0.016131 0.030226 0.061503 0.067169 0.10083l0.067168 0.071498 0.45627-0.43466c0.25095-0.23906 1.1448-1.1241 1.9862-1.9668zm3.3294-3.0813v-0.54688h-0.51823c-0.31164 0-0.51408 0.011764-0.50781 0.02951 0.01186 0.033592 0.99281 1.0642 1.0129 1.0642 0.0072 0 0.01311-0.24609 0.01311-0.54688z" fill="#000" stroke="#000" stroke-width=".03125"/>
    <path d="m8.7554 7.3185c-0.046917-0.051843 0.071869-0.17722 1.8957-2.0009l1.9458-1.9456 0.05929 0.065513c0.05922 0.065439 0.05731 0.067495-1.6891 1.816-0.96162 0.96278-1.8414 1.8337-1.955 1.9354-0.19512 0.17459-0.20942 0.18181-0.25669 0.12959z" fill="#000" stroke="#000" stroke-width=".03125"/>
    <path d="m8.7998 7.2422c0.053213-0.10284 3.7842-3.836 3.8149-3.817 0.01427 0.00882 0.02594 0.039335 0.02594 0.067816 0 0.069793-3.7526 3.8195-3.8225 3.8195-0.046699 0-0.04939-0.010313-0.018346-0.070312z" fill="#000" stroke="#000" stroke-width=".03125"/>
    <path d="m0.20312 13.359c0-1.3664 0.010631-2.4844 0.023624-2.4844 0.028199 0 1.0331 0.87516 1.535 1.3369l0.35552 0.32702 4.4451-4.4451-1.5781-1.5809c-1.5987-1.6015-2.9817-2.9508-3.0238-2.95-0.012664 2.544e-4 -0.40271 0.36579-0.86678 0.81231l-0.84375 0.81184-0.0080018-2.4736c-0.004401-1.3605-0.003143-2.4784 0.002796-2.4844 0.005939-0.005939 1.1115-0.007196 2.4569-0.002793l2.4461 0.0080036-0.51126 0.5625c-0.28119 0.30938-0.66517 0.72152-0.85329 0.91588l-0.34204 0.35338 4.5743 4.5743 1.6271-1.6249c0.89488-0.89371 1.9072-1.9148 2.2496-2.2691l0.6226-0.6442-0.84336-0.9001c-0.46385-0.49506-0.84336-0.91181-0.84336-0.92611 0-0.014307 1.1039-0.026014 2.4531-0.026014h2.4531v2.4688c0 1.3578-0.0085 2.4688-0.01899 2.4688-0.02353 0-0.7608-0.67008-1.3211-1.2007l-0.41824-0.39608-0.08168 0.07184c-0.2336 0.20546-4.41 4.3864-4.41 4.4148 0 0.018351 1.0125 1.045 2.25 2.2814l2.25 2.248 0.14844-0.13877c0.08164-0.07633 0.48945-0.47641 0.90625-0.88908l0.75781-0.75031v4.9839h-2.3594c-1.303 0-2.3594-0.01208-2.3594-0.02698 0-0.03228 0.72884-0.88262 1.1654-1.3597l0.31098-0.33983-2.2616-2.2617c-1.2439-1.2439-2.2757-2.2617-2.293-2.2617-0.017278 0-1.0227 0.99138-2.2343 2.2031l-2.2029 2.2031 1.8743 1.8751h-5.234zm14.301 1.2969h0.13626v-0.48438c0-0.33394-0.01077-0.48438-0.03467-0.48438-0.0394 0-0.93408 0.90043-0.93408 0.94008 0 0.03013 0.35997 0.05568 0.55905 0.03969 0.07545-0.0061 0.19849-0.01102 0.27344-0.01102zm-12.052-0.051692c0.00863-0.0086-0.21626-0.24311-0.49977-0.52106l-0.51546-0.50537-0.019785 0.20312c-0.032978 0.33857-0.029165 0.75023 0.00759 0.8189 0.033632 0.06284 0.04937 0.06412 0.52321 0.04245 0.26869-0.01229 0.49559-0.02941 0.50423-0.03804zm8.3517-3.8938c-2.0871-2.0871-2.013-2.0221-2.1148-1.855-0.028596 0.046915 0.2483 0.33502 1.9464 2.0252l1.9798 1.9705 0.16468-0.16468zm-4.0697-1.1806c0.5907-0.61294 0.62028-0.64936 0.56678-0.69777-0.031044-0.028094-0.078965-0.05108-0.10649-0.05108-0.027527 0-0.919 0.86261-1.9811 1.9169l-1.931 1.9169 0.17815 0.1651 1.3252-1.3017c0.72887-0.71593 1.6057-1.5927 1.9484-1.9484zm1.3782-1.3774 0.066051-0.066051-0.077766-0.077766c-0.063735-0.063736-0.089084-0.071709-0.1405-0.044192-0.087534 0.046847-0.10458 0.11052-0.050332 0.18797 0.058655 0.083742 0.11883 0.083753 0.20255 3.62e-5zm-2.7148-2.8482c-2.0881-2.0881-2.0138-2.0229-2.1148-1.8539-0.028789 0.048153 0.23723 0.32416 1.9493 2.0224l1.9826 1.9666 0.15905-0.15905zm5.4168 0.15147 1.9663-1.9503-0.17138-0.17557-0.53931 0.52895c-0.58313 0.57193-2.5986 2.5886-3.0941 3.0959-0.29529 0.30234-0.30329 0.31426-0.25604 0.38171 0.026824 0.038296 0.066658 0.069629 0.088522 0.069629 0.021863 0 0.92458-0.87765 2.006-1.9503zm3.7632-3.5184v-0.53125l-0.44531 4.267e-4c-0.24492 2.347e-4 -0.4766 0.00881-0.51484 0.019063-0.06187 0.016584-0.01539 0.074992 0.42188 0.53022 0.27027 0.28137 0.50195 0.51185 0.51484 0.51219 0.01289 3.317e-4 0.02344-0.23846 0.02344-0.53065z" fill="#000" stroke="#000" stroke-width=".03125"/>
    <path d="m0.20312 13.359c0-1.3664 0.011039-2.4844 0.024531-2.4844 0.030464 0 0.87444 0.72973 1.4588 1.2613l0.43643 0.39703 4.4394-4.4394-1.0155-1.0185c-1.6059-1.6106-3.5289-3.4817-3.5782-3.4817-0.04567 0-0.34323 0.27219-1.1092 1.0146-0.23203 0.2249-0.46758 0.44984-0.52344 0.49988l-0.10156 0.090968v-4.9804h2.4531c1.3492 0 2.4531 0.008187 2.4531 0.018194 0 0.022426-0.82153 0.92041-1.3234 1.4466l-0.37032 0.38824 4.5738 4.5688 2.2319-2.2479c1.2275-1.2363 2.2319-2.2607 2.2319-2.2765 0-0.037816-0.1051-0.15463-0.94531-1.0507-0.39102-0.417-0.71094-0.7711-0.71094-0.7869 0-0.017218 0.98871-0.02872 2.4688-0.02872h2.4688l-6.4e-5 1.6484c-7.2e-5 1.8523-0.02899 3.2953-0.06577 3.2822-0.03124-0.011138-0.69153-0.61084-1.2778-1.1605l-0.45298-0.42473-1.1251 1.1228c-0.61883 0.61753-1.6302 1.6287-2.2475 2.2471l-1.1223 1.1243 4.5191 4.5104 0.58153-0.57356c0.31984-0.31546 0.72567-0.71386 0.90184-0.88533l0.32031-0.31177v4.9832h-2.3594c-1.2977 0-2.3594-0.01103-2.3594-0.0245 0-0.03568 0.34776-0.44909 0.87064-1.035 0.25162-0.28195 0.48901-0.5512 0.52754-0.59833l0.07005-0.0857-4.5371-4.5078-1.239 1.2174c-0.68144 0.66955-1.6819 1.6612-2.2232 2.2038l-0.98418 0.98642 1.8742 1.875h-5.234zm2.25 1.243c0.01968-0.019147-0.96299-0.97739-1.0023-0.97739-0.016551 0-0.028947 0.21318-0.028947 0.49783 0 0.4923 7.802e-4 0.49794 0.070312 0.50838 0.099108 0.01488 0.942-0.0104 0.96094-0.02882zm12.188-0.43052c0-0.26641-0.01037-0.48438-0.02305-0.48438-0.04045 0-0.91445 0.88818-0.91445 0.92928 0 0.03003 0.11202 0.03947 0.46875 0.03947h0.46875zm-1.9191-1.4249c0.05927-0.0655 0.0577-0.06717-1.9-2.0156-1.2892-1.2831-1.9808-1.9501-2.0221-1.9501-0.034559 0-0.078328 0.028949-0.097265 0.064331-0.031281 0.05845 0.14497 0.24273 1.9278 2.0156 1.0792 1.0732 1.978 1.9513 1.9972 1.9513 0.01924 0 0.06169-0.0295 0.09431-0.06555zm-7.3066-1.9126c1.0523-1.0536 1.9132-1.932 1.9132-1.952 0-0.020011-0.028523-0.051649-0.063384-0.070307-0.050771-0.027172-0.07994-0.0209-0.14658 0.03152-0.045758 0.035993-0.92273 0.89996-1.9488 1.9199l-1.8656 1.8545 0.066024 0.06602c0.036313 0.03631 0.080848 0.06602 0.098966 0.06602s0.8939-0.86204 1.9462-1.9156zm2.6805-2.6799c0.044593-0.049274 0.050427-0.0767 0.024932-0.11719-0.042681-0.067777-0.12635-0.084112-0.18434-0.035987-0.058837 0.04883-0.057545 0.10712 0.00373 0.1684 0.064134 0.064134 0.085772 0.062018 0.15567-0.015222zm-0.79418-0.8091 0.073774-0.060928-1.3594-1.363c-0.74766-0.74963-1.6125-1.604-1.9219-1.8985-0.30938-0.29456 0.27773 0.30869 1.3047 1.3406s1.8672 1.8987 1.8672 1.9264c0 0.027634-0.015696 0.059945-0.03488 0.071802-0.020655 0.012765-0.82678-0.76711-1.9766-1.9122l-1.9417-1.9338 1.9374 1.9453c1.0656 1.0699 1.9464 1.9453 1.9575 1.9453 0.011038 0 0.053268-0.027418 0.093845-0.060928zm3.6655-2.0443 1.8105-1.7923-0.17414-0.17414-1.95 1.9498c-1.0725 1.0724-1.95 1.9664-1.95 1.9867 0 0.020308 0.022377 0.059302 0.049728 0.086652 0.04547 0.04547 0.064867 0.036277 0.22656-0.10739 0.097259-0.086412 0.99155-0.96363 1.9873-1.9494zm-7.5889-1.918c-0.021672-0.021672-0.080959 0.022361-0.080959 0.060128 0 0.020722 0.017931 0.018351 0.04763-0.0063 0.026197-0.021741 0.041195-0.045965 0.033329-0.053831zm11.186-1.9365c-0.01164-0.030346-0.11812-0.039547-0.43051-0.037202-0.65723 0.00493-0.65182-0.037794-0.07047 0.55634l0.49918 0.51015 0.0086-0.49449c0.0048-0.27197 0.0017-0.51263-0.0068-0.53481z" fill="#000" stroke="#000" stroke-width=".03125"/>
    <path d="m0.18554 15.841c-0.029336-0.047467 0.019427-4.9656 0.049234-4.9656 0.028777 0 0.88605 0.74108 1.4527 1.2558 0.22344 0.20296 0.42221 0.36906 0.44171 0.3691 0.019502 4.5e-5 1.0226-0.99348 2.2292-2.2078l2.1937-2.2079-0.41667-0.42033c-1.0255-1.0345-4.1325-4.0701-4.1658-4.0701-0.03919 0-0.60773 0.52765-1.2847 1.1923-0.22486 0.22077-0.41822 0.40141-0.42969 0.40141-0.011465 0-0.020846-1.118-0.020846-2.4844v-2.4844h2.4557c1.4977 0 2.4517 0.011319 2.4453 0.029015-0.00883 0.024584-0.45879 0.51747-1.4692 1.6093l-0.20875 0.22558 4.5619 4.558 2.061-2.0781c1.1335-1.143 2.1397-2.1658 2.2359-2.2729l0.17488-0.19482-0.1987-0.21388c-0.10928-0.11763-0.48346-0.51899-0.83151-0.89191-0.34805-0.37292-0.63281-0.69174-0.63281-0.70849 0-0.019519 0.88662-0.030457 2.4688-0.030457h2.4688v2.0419c0 1.9534-0.01938 2.8958-0.05953 2.8954-0.020564-1.804e-4 -0.79706-0.70284-1.3553-1.2264-0.197-0.18477-0.37054-0.33594-0.38567-0.33594-0.01512 0-1.0295 1.0019-2.2541 2.2265l-2.2266 2.2265 4.5153 4.5157 0.89718-0.89678c0.60808-0.60781 0.90275-0.88219 0.91446-0.8515 0.0095 0.0249 0.01366 1.1562 0.0092 2.514l-0.0081 2.4688-2.3594-0.01105c-1.2977-0.0061-2.3642-0.01557-2.3701-0.02109-0.0059-0.0055 0.0012-0.03068 0.01563-0.05589 0.03556-0.06199 0.57679-0.69218 1.0382-1.2088 0.20721-0.23203 0.3772-0.438 0.37774-0.4577 0.0013-0.04815-4.4634-4.4642-4.5134-4.4642-0.021609 0-1.0264 0.97652-2.2328 2.17l-2.1935 2.17 0.94035 0.94073c0.51719 0.5174 0.93043 0.95064 0.91831 0.96277-0.038758 0.03876-5.2239 0.02653-5.248-0.01238zm14.455-1.614c-2.64e-4 -0.23633-0.0145-0.45078-0.03163-0.47656-0.02517-0.03787-0.116 0.03923-0.47301 0.40148-0.33682 0.34177-0.43145 0.45494-0.39806 0.47608 0.02409 0.01525 0.23716 0.02795 0.47349 0.02821l0.42969 4.78e-4zm-12.25 0.3675c0.037443-0.023948-0.050492-0.12402-0.43701-0.49734-0.31696-0.30614-0.49197-0.45463-0.50733-0.43048-0.029027 0.04564-0.032319 0.90918-0.00358 0.93792 0.032634 0.03263 0.89547 0.02344 0.94792-0.01011zm10.289-1.8251c0.03008-0.02283 0.05483-0.06106 0.05501-0.08494 3.57e-4 -0.047643-3.5475-3.5854-3.7931-3.7823-0.11958-0.095873-0.16141-0.11433-0.19531-0.086191-0.02373 0.019694-0.043145 0.05118-0.043145 0.06997 0 0.033638 3.8741 3.9279 3.9057 3.9259 0.0089-5.47e-4 0.04081-0.01967 0.07089-0.04251zm-7.2849-1.9192c1.0461-1.0451 1.9021-1.9223 1.9021-1.9493 0-0.027-0.021037-0.066549-0.046748-0.087888-0.06017-0.049937-0.44419 0.31417-2.4516 2.3245-1.4692 1.4713-1.4822 1.4855-1.4248 1.5489 0.031853 0.0352 0.071669 0.06399 0.088482 0.06399 0.016812 0 0.88651-0.85509 1.9327-1.9002zm2.7-2.6946c0.056042-0.061926 0.055827-0.065336-0.0081791-0.12934-0.11553-0.11553-0.25746 0.010669-0.14802 0.13161 0.069439 0.07673 0.084907 0.076505 0.15619-0.00227zm2.9944-2.9973c1.2724-1.2639 1.6451-1.6511 1.6229-1.6862-0.097699-0.15489-0.044446-0.20146-1.9797 1.7316-1.0151 1.014-1.8887 1.8969-1.9411 1.9621-0.092307 0.11465-0.093589 0.1205-0.0395 0.18026 0.054946 0.060714 0.061289 0.056564 0.37085-0.24267 0.17322-0.16744 1.0582-1.0427 1.9666-1.9451zm-3.9546 1.8814c-0.12558-0.12728-0.42521-0.41636-0.66583-0.64241-0.41855-0.39318-0.41076-0.38368 0.17969 0.21923 0.33945 0.34662 0.61719 0.65387 0.61719 0.68278 0 0.044031 0.0079 0.04601 0.048645 0.012192 0.042514-0.035284 0.019868-0.069538-0.17969-0.27179zm7.4417-5.2022c0.0016-0.33099-4e-3 -0.36919-0.05865-0.39844-0.11016-0.058953-0.9083-0.032712-0.9083 0.029864 0 0.012532 0.20739 0.23793 0.46087 0.50089l0.46087 0.47811 0.02171-0.12217c0.01194-0.067192 0.02252-0.28691 0.02351-0.48826z" fill="#000" stroke="#000" stroke-width=".03125"/>
    <path d="m0.19271 15.854c-0.04742-0.047421-0.0053129-4.9792 0.042512-4.9792 0.031206 0 0.63635 0.51859 1.3069 1.12l0.5734 0.51426 2.2-2.1999c1.21-1.2099 2.2-2.2131 2.2-2.2292 0-0.029409-3.0237-3.0297-4.0108-3.9797l-0.52646-0.50669-0.08339 0.059379c-0.045864 0.032658-0.43025 0.39124-0.8542 0.79685-0.42394 0.40561-0.77675 0.73747-0.78402 0.73747-0.020491 0-0.047416-4.2033-0.029523-4.6088l0.015883-0.35993h2.4488c1.3468 0 2.4486 0.010547 2.4484 0.023438-3.275e-4 0.024119-0.64222 0.73159-1.2968 1.4293l-0.37057 0.39498 4.5516 4.552 1.9723-1.9889c1.0848-1.0939 2.0891-2.1103 2.2319-2.2588l0.25967-0.26984-0.80672-0.8668c-0.7812-0.83937-0.87277-0.94413-0.84744-0.96947 0.0065-0.006539 1.1152-0.016031 2.4638-0.021094l2.4519-0.0092054 0.0095 2.1562c0.0092 2.0933-0.0048 2.7969-0.05585 2.7969-0.02828 0-0.62172-0.53564-1.2751-1.1509l-0.44643-0.42039-0.08482 0.074353c-0.22521 0.19745-4.3817 4.3587-4.3817 4.3867 0 0.041588 4.4431 4.4852 4.4847 4.4852 0.01726 0 0.42415-0.39296 0.9042-0.87324 0.48005-0.48028 0.88425-0.86617 0.89823-0.85753 0.01398 0.0086 0.02541 1.1399 0.02541 2.5139v2.4982h-1.1043c-1.6177 0-3.6457-0.03746-3.6457-0.06735 0-0.03538 0.41543-0.52839 0.97947-1.1624l0.46851-0.5266-4.5089-4.5051-0.21173 0.19862c-0.32209 0.30215-4.1961 4.1678-4.1961 4.187 0 0.0093 0.41405 0.43071 0.92011 0.93655 0.50606 0.50584 0.91304 0.93114 0.90441 0.94511-0.018692 0.03025-5.211 0.03477-5.2412 0.0046zm14.446-1.5495c-9.91e-4 -0.19336-0.01215-0.40781-0.02481-0.47656l-0.02301-0.125-0.42832 0.43317c-0.23557 0.23824-0.42832 0.44463-0.42832 0.45865 0 0.04319 0.09454 0.05393 0.50781 0.05769l0.39844 0.0036zm-12.301 0.29318c0.085073-0.01918 0.074096-0.03305-0.38667-0.48849-0.41644-0.41162-0.4773-0.46113-0.49942-0.40625-0.02954 0.07327-0.038388 0.80009-0.010622 0.87244 0.016021 0.04175 0.080364 0.04886 0.41406 0.04573 0.2173-2e-3 0.4345-0.01258 0.48265-0.02344zm8.7245-3.6013c-0.92786-0.92957-1.8193-1.8091-1.981-1.9545-0.26126-0.23492-0.29922-0.25915-0.34085-0.21752-0.041629 0.041629-0.022298 0.074019 0.17356 0.29081 0.12123 0.13418 1.0035 1.0229 1.9605 1.975l1.7401 1.731 0.1347-0.1347zm-4.6822-1.1457c0.50702-0.52029 0.91611-0.96325 0.90908-0.98438-0.035855-0.10769-0.13792-0.043553-0.51769 0.32531-1.2384 1.2029-3.4118 3.3938-3.4118 3.4393 0 0.02929 0.023814 0.06658 0.05292 0.08287 0.043438 0.02431 0.23143-0.14478 1.0493-0.94376 0.54799-0.53536 1.4112-1.3991 1.9182-1.9193zm1.7275-1.722c0.02384-0.044546 0.017903-0.07073-0.024799-0.10938-0.069439-0.062842-0.08145-0.06299-0.14268-0.00176-0.037021 0.037021-0.04113 0.063835-0.016757 0.10938 0.04115 0.07689 0.1435 0.07787 0.18423 0.00176zm1.4053-1.4174c0.37119-0.36491 1.2504-1.2359 1.9538-1.9356 1.1621-1.156 1.2748-1.277 1.2344-1.3261-0.04126-0.05004-0.04523-0.048474-0.05462 0.021499-0.012506 0.093194-3.7468 3.8411-3.8271 3.8411-0.029368 0-0.053396-0.01662-0.053396-0.036934s0.8332-0.87389 1.8516-1.8968c1.0184-1.0229 1.6069-1.6286 1.3078-1.3459-0.551 0.52091-3.166 3.164-3.1858 3.22-0.016865 0.04774 0.020572 0.12215 0.061456 0.12215 0.020368 0 0.34073-0.29856 0.71192-0.66347zm-2.1845 0.57691c0-0.01323-0.13627-0.15737-0.30281-0.32031l-0.30281-0.29626 0.27156 0.29067c0.14936 0.15987 0.27156 0.30401 0.27156 0.32031 0 0.016303 0.014062 0.029642 0.03125 0.029642s0.03125-0.010825 0.03125-0.024055zm7.2368-5.705c-0.0195-0.13004-0.02754-0.1393-0.13658-0.15733-0.26757-0.044236-0.7962-0.00361-0.78132 0.06004 0.0051 0.021689 0.20609 0.24708 0.44672 0.50087l0.4375 0.46144 0.0272-0.36342c0.01496-0.19988 0.01788-0.4256 0.0065-0.5016z" fill="#000" stroke="#000" stroke-width=".03125"/>
    <path d="m3.4066 12.657c-0.011063-0.0179 0.68043-0.73732 1.5367-1.5987 1.5275-1.5367 2.2508-2.2338 2.2836-2.201 0.035038 0.035038-0.40431 0.49517-1.9129 2.0034-1.592 1.5916-1.8713 1.8547-1.9073 1.7963z" fill="#000" stroke="#000" stroke-width=".03125"/>
    <path d="m3.9732 12.075c0.65477-0.69026 3.0744-3.0849 3.0957-3.0637 0.040317 0.040317-3.3793 3.4775-3.4988 3.5168-0.021336 7e-3 0.16007-0.19689 0.40314-0.45312z" fill="#000" stroke="#000" stroke-width=".03125"/>
    <path d="m1.4922 14.573c-0.047609-0.01921-0.054847-0.7187-0.00819-0.7918 0.023996-0.0376 0.11054 0.03347 0.43761 0.35938 0.36877 0.36746 0.40093 0.40819 0.3368 0.42657-0.08358 0.02396-0.70949 0.02874-0.76621 0.0059z" fill="#000" stroke="#000" stroke-width=".03125"/>
    <path d="m0.19271 15.854c-0.026881-0.02688-0.027003-3.4104-1.5506e-4 -4.2995 0.011289-0.37383 0.031389-0.67969 0.044667-0.67969 0.034789 0 0.51086 0.40488 1.2455 1.0592l0.63892 0.56912 4.4097-4.4137-1.8774-1.8651c-1.0326-1.0258-2.0566-2.033-2.2756-2.2382-0.38488-0.36064-0.40065-0.3716-0.47201-0.32812-0.040604 0.024736-0.42065 0.37544-0.84456 0.77935-0.4239 0.40391-0.78115 0.7383-0.79389 0.74309-0.045707 0.017202-0.087697-4.5035-0.044742-4.8169l0.019873-0.14499h2.4489c1.3469 0 2.4489 0.011616 2.4489 0.025814 0 0.029262-0.58028 0.67057-1.23 1.3594l-0.43704 0.46332 4.5468 4.5421 2.2164-2.231c1.219-1.227 2.2164-2.2483 2.2164-2.2694 0-0.021135-0.34553-0.40939-0.76784-0.86278-0.77372-0.83067-0.87942-0.95314-0.84896-0.98359 0.0092-0.009166 1.122-0.025035 2.473-0.035265l2.4563-0.0186v2.3444c0 2.2449-0.0095 2.6344-0.06441 2.6344-0.02813 0-0.4637-0.39022-1.2111-1.085l-0.51414-0.47794-1.1856 1.1747c-0.65206 0.64608-1.6578 1.6519-2.235 2.2351l-1.0494 1.0604 2.0722 2.0698c1.1397 1.1384 2.1529 2.1444 2.2514 2.2355l0.17913 0.1657 0.88962-0.87591c0.48929-0.48175 0.89866-0.86686 0.90972-0.85581 0.01105 0.01105 0.0201 1.1428 0.0201 2.5149v2.4948l-1.6016-6.8e-5c-1.8947-8e-5 -3.1484-0.02853-3.1484-0.07143 0-0.03701 0.29596-0.39003 0.94698-1.1296l0.49386-0.561-1.6501-1.6522c-0.90756-0.90873-1.9259-1.9183-2.263-2.2435l-0.61286-0.59125-4.3993 4.369 0.93089 0.93359c0.51199 0.51347 0.92098 0.9435 0.90885 0.95563-0.02803 0.02803-5.2128 0.02922-5.2408 0.0012zm14.427-1.646c-3e-3 -0.23786-0.0143-0.44139-0.02519-0.45227-0.01089-0.01088-0.21236 0.17621-0.44773 0.41576l-0.42794 0.43555 0.125 0.02059c0.06875 0.01132 0.27266 0.01885 0.45312 0.01672l0.32813-0.003872zm-12.495 0.3856c0.012403-0.020069-0.097105-0.03125-0.30607-0.03125h-0.32538l-0.016579-0.22656c-0.00912-0.12461-0.00761-0.30391 0.00335-0.39844l0.019931-0.17188 0.38269 0.37234c0.21048 0.20478 0.38269 0.38305 0.38269 0.39615 0 0.0131-0.024609 0.03024-0.054687 0.0381-0.030078 0.0079-0.00195 0.01592 0.0625 0.01792 0.064453 2e-3 0.11719-0.0089 0.11719-0.02411 0-0.03504-0.86967-0.87852-0.9058-0.87852-0.08075 0-0.080525 0.85626 2.382e-4 0.90734 0.062168 0.03931 0.61555 0.03837 0.63994-0.0011zm10.581-1.8629c0.036791-0.044331-0.18628-0.27722-1.8634-1.9453-1.0478-1.0422-1.9438-1.9149-1.991-1.9393-0.10157-0.052409-0.13128-0.03355-0.10041 0.063732 0.027795 0.087573 3.8103 3.8712 3.87 3.8712 0.02365 0 0.0618-0.02266 0.08479-0.05036zm-7.3069-1.914c1.4036-1.4059 1.894-1.9155 1.8795-1.9533-0.02705-0.070492-0.049049-0.065241-0.18744 0.044742-0.14216 0.11297-2.8302 2.7707-3.3685 3.3305-0.3127 0.3252-0.36496 0.39333-0.33211 0.43291 0.021443 0.02584 0.054844 0.04706 0.074224 0.04717 0.01938 1.05e-4 0.88982-0.8558 1.9343-1.902zm2.6787-2.6759c0.055681-0.067092 0.014456-0.14738-0.069523-0.1354-0.080091 0.011425-0.11366 0.11413-0.050409 0.15422 0.058585 0.037127 0.075737 0.034436 0.11993-0.018817zm0.78557-0.82071c0.037947-0.048387 0.037157-0.050218-0.00686-0.015896-0.027363 0.021335-0.059003 0.029538-0.070312 0.018229s-0.020562-0.00416-0.020562 0.015896c0 0.053502 0.048588 0.04444 0.097736-0.018229zm-1.5954-0.11024-0.072344-0.069444 0.054875 0.086913c0.030182 0.047802 0.062736 0.079052 0.072344 0.069444 0.00961-0.00961-0.015086-0.048719-0.054875-0.086913zm4.7767-3.0116c0.07612-0.083393 0.25542-0.27286 0.39844-0.42104s0.25959-0.2888 0.25905-0.3125c-5.44e-4 -0.023697-0.03109-8.991e-4 -0.06788 0.050663-0.03679 0.051563-0.37736 0.40928-0.75682 0.79493-0.49576 0.50384-0.58879 0.60808-0.33056 0.37037 0.19766-0.18194 0.42166-0.39904 0.49778-0.48243zm2.5022-2.2592c0-0.33945-0.01066-0.47369-0.03906-0.49174-0.0544-0.034587-0.80436-0.022933-0.84035 0.013058-0.02879 0.028785 0.799 0.94559 0.85378 0.94559 0.0141 0 0.02563-0.21011 0.02563-0.46691z" fill="#000" stroke="#000" stroke-width=".03125"/>
    <path d="m0.18338 15.829c-0.026024-0.06782 5.445e-5 -4.9131 0.026587-4.9397 0.012354-0.01235 0.054542-0.0012 0.09375 0.02478 0.093271 0.06181 0.62719 0.52262 1.29 1.1134l0.53125 0.47349 4.4062-4.4148-1.7188-1.7022c-1.869-1.851-2.8076-2.7587-2.8528-2.7587-0.015897 0-0.3002 0.25664-0.63179 0.57031-0.94297 0.89202-1.0636 1.0012-1.0841 0.98078-0.026336-0.026336-0.05439-4.7734-0.028812-4.8754l0.020578-0.081989h2.4525c1.4043 0 2.4525 0.011837 2.4525 0.027695 0 0.029876-0.45495 0.53522-1.1966 1.3291l-0.4647 0.49745 4.5356 4.5356 0.26863-0.26527c0.97245-0.96028 4.1725-4.2248 4.1641-4.2481-0.00561-0.01562-0.35819-0.40556-0.7835-0.86654-0.42532-0.46098-0.7937-0.86756-0.81863-0.90353l-0.04533-0.065386 0.67801-0.020474c0.3729-0.011261 1.4901-0.020509 2.4827-0.020551l1.8047-7.663e-5v2.3867c0 1.3127-0.0088 2.4307-0.01953 2.4844-0.01074 0.053711-0.03202 0.097656-0.04729 0.097656-0.02808 0-0.63732-0.54476-1.323-1.183-0.2058-0.19156-0.38858-0.34828-0.40617-0.34828-0.01759 0-1.0269 0.99488-2.243 2.2109l-2.211 2.2109 4.4804 4.4807 0.89658-0.87309c0.49312-0.4802 0.90534-0.87309 0.91606-0.87309 0.01071 0 0.01948 1.132 0.01948 2.5156v2.5156l-1.8359-9.6e-5c-2.0672-1.07e-4 -2.9141-0.02222-2.9141-0.07607 0-0.0348 0.51018-0.63962 1.122-1.3301l0.31842-0.35938-2.2418-2.2266c-1.233-1.2246-2.2567-2.226-2.2749-2.2254-0.018217 6.469e-4 -1.0165 0.97515-2.2183 2.1656l-2.1852 2.1644 0.9196 0.93136c0.50578 0.51225 0.92429 0.94399 0.93002 0.95944 0.00611 0.01646-1.0769 0.02808-2.6182 0.02808-2.2946 0-2.6308-0.0059-2.6464-0.04636zm1.8479-1.2349c0.039971-0.01718-0.055776-0.02653-0.26562-0.02594-0.20973 5.86e-4 -0.29993 0.0099-0.25 0.02594 0.10467 0.03352 0.43762 0.03352 0.51562 0zm12.578-0.38878c0-0.23102-0.01206-0.42749-0.02681-0.4366-0.03128-0.01933-0.81694 0.77156-0.81694 0.82239 0 0.02313 0.13687 0.03424 0.42188 0.03424h0.42188zm-12.25 0.34981c0-0.04116-0.75803-0.78857-0.85156-0.83962-0.049201-0.02686-0.054161-0.01328-0.049434 0.13531 0.00429 0.13487 0.0075 0.14367 0.017511 0.04797 0.00674-0.06445 0.022176-0.11719 0.034298-0.11719 0.05058 0 0.7618 0.74568 0.74191 0.77786-0.013023 0.02107 0.0038 0.03464 0.042934 0.03464 0.035389 0 0.064344-0.01754 0.064344-0.03897zm-0.90283-0.33603c-0.016765-0.12734-0.028094-0.16232-0.030362-0.09375-0.00408 0.12331 0.032316 0.37538 0.047333 0.32783 0.00538-0.01702-0.00226-0.12236-0.016971-0.23408zm11.242-1.5129c0.0084-0.04338-0.45978-0.52743-1.7653-1.8253-0.97715-0.97142-1.8585-1.8344-1.9585-1.9176-0.17005-0.14158-0.23998-0.16485-0.23998-0.079876 0 0.059986 3.8554 3.9005 3.9059 3.8908 0.0256-0.0049 0.05166-0.03553 0.05791-0.068zm-7.4352-1.7606c1.9998-2.0008 2.1456-2.1605 1.9035-2.0845-0.039967 0.012547-0.91548 0.86358-1.9456 1.8912-1.6279 1.624-1.8676 1.8748-1.8321 1.9175 0.022441 0.02704 0.054483 0.04916 0.071204 0.04916 0.016722 0 0.82806-0.79805 1.803-1.7734zm2.8152-2.8047c0.031037-0.037398 0.031037-0.056352 0-0.09375-0.050039-0.060294-0.12189-0.060097-0.1451 3.978e-4 -0.017957 0.046795 0.03708 0.14023 0.082602 0.14023 0.012978 0 0.041103-0.021094 0.0625-0.046875zm4.0938-4.0938c0.093357-0.094531 0.16271-0.17188 0.15412-0.17188-0.0086 0-0.09201 0.077344-0.18536 0.17188-0.09336 0.094531-0.16271 0.17188-0.15412 0.17188 0.0086 0 0.09201-0.077344 0.18536-0.17188zm2.3594-2.1432v-0.45052h-0.42188c-0.31236 0-0.42188 0.00995-0.42188 0.038329 0 0.052778 0.77369 0.88282 0.8125 0.87168 0.01897-0.00545 0.03125-0.18596 0.03125-0.45949z" fill="#000" stroke="#000" stroke-width=".03125"/>
    <path d="m0.19271 15.854c-0.0268-0.0268-0.027061-4.163-2.9157e-4 -4.6276 0.01124-0.19507 0.033895-0.35156 0.050894-0.35156 0.038777 0 0.56355 0.4443 1.2879 1.0904 0.30938 0.27595 0.57883 0.50209 0.59879 0.50253 0.019957 4.38e-4 1.0155-0.9871 2.2124-2.1945l2.1761-2.1953-1.4155-1.4001c-2.5004-2.4732-3.1141-3.0578-3.1746-3.0242-0.02936 0.01628-0.41198 0.36801-0.85026 0.78162-0.43828 0.41361-0.80524 0.75204-0.81547 0.75205-0.04021 5.56e-5 -0.059532-0.9433-0.059532-2.9064v-2.0528l0.62732-0.02207c0.75075-0.026412 4.3102 0.012134 4.3102 0.046676 0 0.025447-0.5976 0.68978-1.2625 1.4034l-0.39303 0.42188 2.2574 2.2578c1.2415 1.2418 2.2664 2.2578 2.2774 2.2578 0.011005 0 1.0125-1.0074 2.2255-2.2388l2.2054-2.2388-0.0641-0.08154c-0.035259-0.044847-0.34917-0.39132-0.69759-0.76993-0.34842-0.37862-0.69408-0.7583-0.76814-0.84375l-0.13466-0.15536 0.32562-0.019608c0.17909-0.010784 1.2995-0.021331 2.4897-0.023438l2.1641-0.003829-4.78e-4 2.4453c-2.73e-4 1.3931-0.01257 2.4644-0.02858 2.4897-0.02406 0.038014-0.03861 0.037314-0.10108-0.00487-0.07248-0.048939-0.68166-0.59934-1.3208-1.1933l-0.3336-0.31005-0.22494 0.21592c-0.64396 0.61816-4.2093 4.1897-4.2093 4.2167 0 0.037478 4.4105 4.4531 4.4479 4.4531 0.01423 0 0.41834-0.38315 0.89803-0.85145 0.47968-0.4683 0.88636-0.85619 0.90373-0.86198 0.0211-7e-3 0.03158 0.82524 0.03158 2.5077v2.5182l-1.9766-1.27e-4c-2.0369-1.3e-4 -2.7734-0.01886-2.7734-0.07053 0-0.04466 0.19588-0.28297 0.82304-1.0013 0.31217-0.35756 0.57164-0.66789 0.57659-0.68963 5e-3 -0.02173-0.99776-1.0342-2.2283-2.2498l-2.2373-2.2103-0.22955 0.21437c-0.12625 0.11791-1.1152 1.0918-2.1977 2.1642l-1.9681 1.9499 0.9103 0.93237c0.50067 0.5128 0.91499 0.94582 0.92072 0.96226 0.011861 0.03403-5.2212 0.04305-5.2552 0.0091zm1.6667-1.2604c0.034384-0.02222 0.013567-0.02984-0.078125-0.02858-0.098208 0.0014-0.1116 0.0075-0.0625 0.02858 0.082226 0.03533 0.08595 0.03533 0.14062 0zm12.75-0.35022c-2.64e-4 -0.21129-0.01249-0.40311-0.02717-0.42628-0.01973-0.03112-0.12972 0.06181-0.4214 0.35604-0.21709 0.21899-0.3947 0.40878-0.3947 0.42176 0 0.01299 0.18984 0.02564 0.42188 0.02812l0.42188 0.0045zm-12.268 0.32402c0.01966-0.03181-0.79948-0.8488-0.85103-0.8488-0.020059 0-0.036471 0.02065-0.036471 0.04589 0 0.02663 0.018475 0.0388 0.044014 0.029 0.04904-0.01882 0.76849 0.69262 0.76849 0.75994 0 0.04499 0.050068 0.05431 0.075001 0.01397zm10.302-1.9383c-0.11881-0.16512-3.7389-3.7461-3.8095-3.7684-0.039967-0.012585-0.080117-0.015433-0.089221-0.00633-0.02984 0.02984 0.76895 0.85422 2.3312 2.4059 1.2712 1.2626 1.5443 1.5197 1.5817 1.4887 0.03895-0.03232 0.03701-0.04873-0.01419-0.11987zm-8.2097-0.87076c1.2144-1.198 2.8322-2.8458 2.8322-2.8846 0-0.097738-0.16389 0.032645-0.69829 0.55553-2.1233 2.0776-3.1767 3.1474-3.1767 3.2262 0 0.10645 0.19978-0.06542 1.0428-0.89707zm3.643-3.6303c0.047469-0.088696-0.043563-0.15885-0.11432-0.088103-0.041604 0.041605-0.043395 0.058916-0.01023 0.098878 0.05309 0.063969 0.086071 0.061116 0.12455-0.010775zm6.4497-6.2876-0.019511-0.36287-0.35514-0.019033c-0.19533-0.010468-0.38367-0.00848-0.41854 0.00442-0.05805 0.021474-0.04835 0.040466 0.11509 0.22543 0.09817 0.11109 0.28492 0.31117 0.415 0.44463 0.23643 0.24255 0.23652 0.24261 0.25956 0.15647 0.01267-0.047395 0.01427-0.24946 0.0035-0.44904z" fill="#000" stroke="#000" stroke-width=".03125"/>
    <path d="m13.859 14.561c0-0.0442 0.63956-0.68634 0.68358-0.68634 0.02402 0 0.03517 0.11393 0.03517 0.35938v0.35938h-0.35938c-0.2273 0-0.35938-0.01191-0.35938-0.03241z" fill="#000" stroke="#000" stroke-width=".03125"/>
    <path d="m14.031 14.565-0.15625-0.01853 0.6544-0.65625 0.02097 0.1875c0.01153 0.10312 0.02249 0.26133 0.02436 0.35156l0.0034 0.16406-0.19531-0.0049c-0.10742-0.0027-0.26562-0.01325-0.35156-0.02344z" fill="#000" stroke="#000" stroke-width=".03125"/>
    <path d="m0.17188 13.614c0-2.3067 0.012035-2.7391 0.076242-2.7391 0.039527 0 0.53403 0.4184 1.3412 1.1348l0.52684 0.46759 2.1846-2.184c1.2016-1.2012 2.1809-2.2012 2.1763-2.2222-0.0089535-0.040905-3.5529-3.5446-4.1434-4.0962-0.34052-0.31816-0.35649-0.32884-0.42672-0.28556-0.040129 0.024733-0.42156 0.37192-0.84762 0.77153-0.42606 0.39961-0.78393 0.72656-0.79526 0.72656-0.047578 0-0.061026-0.59949-0.061026-2.7204v-2.2422l0.36719-0.023352c0.37842-0.024066 4.5369 0.004583 4.5637 0.031441 0.032508 0.032508-0.15557 0.24622-1.3195 1.4993l-0.31043 0.33423 4.5271 4.5247 2.1875-2.2182c1.2031-1.22 2.1914-2.2358 2.1962-2.2573 0.004803-0.021481-0.35712-0.43953-0.80427-0.92899-0.44715-0.48946-0.81319-0.89834-0.81342-0.90862-9.61e-4 -0.042837 0.78575-0.059436 2.8169-0.059436h2.1514v2.4349c0 1.3392-0.0085 2.4572-0.01897 2.4844-0.03949 0.10291-0.03899 0.10332-1.1617-0.92767l-0.60462-0.55522-1.2441 1.2238c-0.68425 0.67311-1.6835 1.6724-2.2207 2.2207l-0.97656 0.99691 1.9649 1.9698c1.0807 1.0834 2.0864 2.0813 2.2349 2.2176l0.27006 0.24777 0.88542-0.85967c0.48698-0.47282 0.89632-0.85967 0.90963-0.85967 0.01331 0 0.02421 1.133 0.02421 2.5179v2.5179l-2.3568-0.01008c-1.2962-0.0055-2.3673-0.02064-2.3803-0.03356-0.0429-0.04293 0.04848-0.1616 0.72666-0.94371l0.67304-0.77618-1.6985-1.7006c-0.93419-0.93534-1.9467-1.9391-2.2501-2.2305l-0.55154-0.52988-4.3648 4.3358 0.91364 0.93163c0.5025 0.5124 0.91364 0.94339 0.91364 0.95776s-1.1883 0.02613-2.6406 0.02613h-2.6406zm14.432 0.6228c-0.0057-0.21346-0.02139-0.3991-0.03487-0.41253s-0.20008 0.15067-0.41466 0.36467c-0.45263 0.45139-0.45838 0.42789 0.10578 0.43285l0.35411 0.0031zm-12.276 0.31726c0-0.02178-0.15744-0.19404-0.34987-0.38281l-0.34987-0.34322 0.31862 0.33637c0.17524 0.18501 0.31862 0.35727 0.31862 0.38281 0 0.02554 0.014063 0.04644 0.03125 0.04644s0.03125-0.01782 0.03125-0.0396zm-0.76496-0.77217c-0.030742-0.03397-0.069322-0.05347-0.085733-0.04332-0.016411 0.01014 0.00305 0.03656 0.043239 0.0587 0.10192 0.05615 0.10591 0.0547 0.042494-0.01538zm11.109-1.0844c0-0.09197-3.7838-3.8538-3.8763-3.8538-0.016482 0-0.029967 0.015449-0.029967 0.034331 0 0.086544 3.7877 3.8719 3.8743 3.8719 0.01758 0 0.03196-0.0236 0.03196-0.05245zm-7.895-1.2991 1.2917-1.2891-1.2284 1.2109c-0.67562 0.66602-1.246 1.2109-1.2675 1.2109-0.051898 0 0.039035-0.09488 1.6611-1.7331 0.76513-0.77276 1.3771-1.3938 1.3599-1.3801-0.083628 0.066656-2.3684 2.3426-2.7584 2.7478-0.39952 0.41504-0.4772 0.5217-0.37995 0.5217 0.016401 0 0.61109-0.58008 1.3215-1.2891zm2.4276-2.4687c0.059618-0.10165-0.031485-0.059477-0.16876 0.078125-0.072875 0.073047-0.09315 0.098541-0.045056 0.056653 0.20997-0.18287 0.051767 0.01189-0.4011 0.49379l-0.48854 0.51987 0.53569-0.54688c0.29463-0.30078 0.55013-0.57148 0.56777-0.60156zm0.86775-0.84411c0.00722-0.0375-0.00961-0.054329-0.054329-0.054329-0.044722 0-0.064791 0.02007-0.064791 0.064791 0 0.080083 0.10343 0.070998 0.11912-0.010462zm6.4434-6.1793v-0.4375h-0.40625c-0.22344 0-0.40625 0.011384-0.40625 0.025299 0 0.037546 0.74826 0.8497 0.78285 0.8497 0.01729 0 0.02965-0.18239 0.02965-0.4375z" fill="#000" stroke="#000" stroke-width=".03125"/>
    <path d="m0.17188 13.567c0-2.3613 0.009747-2.6921 0.07934-2.6921 0.035983 0 0.61355 0.48808 1.5141 1.2795l0.3591 0.31558 4.3744-4.377-0.81193-0.81515c-1.2169-1.2217-3.4826-3.4323-3.6208-3.5327l-0.12133-0.088153-0.11305 0.098563c-0.062176 0.05421-0.43485 0.39856-0.82816 0.76523-0.39331 0.36667-0.72539 0.66666-0.73794 0.66666-0.052843 0-0.06257-0.4082-0.06257-2.6257v-2.3357l0.070312-0.018843c0.095145-0.025498 3.2755-0.024799 4.159 9.1341e-4 0.3895 0.011335 0.70818 0.03234 0.70818 0.046677 0 0.035506-0.33953 0.41862-1.0436 1.1776l-0.5905 0.63654 4.5089 4.5089 0.61243-0.60921c0.33684-0.33507 1.3284-1.3378 2.2034-2.2283 1.3141-1.3374 1.5857-1.6282 1.5609-1.6719-0.016544-0.029058-0.38222-0.43906-0.81261-0.91112-0.43039-0.47206-0.78253-0.86726-0.78253-0.87823 0-0.046878 0.60829-0.06036 2.7235-0.06036h2.2453v2.4697c0 2.175-0.0056 2.4719-0.04724 2.4879-0.05637 0.021632-0.1507-0.057555-1.0433-0.87584-0.36776-0.33715-0.68421-0.613-0.70321-0.613s-1.0224 0.98792-2.2298 2.1954l-2.1952 2.1954 1.7265 1.7359c0.9496 0.95472 1.9515 1.9562 2.2265 2.2255l0.5 0.48966 0.88885-0.8584c0.48886-0.47212 0.90019-0.8584 0.91406-0.8584 0.01387 0 0.02522 1.1329 0.02522 2.5176v2.5176l-2.3568-0.0098c-1.2962-0.0054-2.3673-0.02034-2.3803-0.03325-0.04256-0.0426 0.04627-0.15856 0.72507-0.94645l0.67206-0.78007-2.2248-2.2109c-1.2236-1.216-2.2405-2.2109-2.2597-2.2108-0.019216 6.91e-5 -1.012 0.96785-2.2063 2.1506l-2.1713 2.1505 0.91351 0.93002c0.50243 0.51151 0.91351 0.94295 0.91351 0.95876 0 0.01726-1.055 0.02874-2.6406 0.02874h-2.6406zm14.431 0.8001-0.0063-0.25781-0.01065 0.24219-0.01065 0.24219-0.194-2.72e-4c-0.1067-1.49e-4 -0.26901-0.0093-0.36069-0.02029l-0.16669-0.02002 0.67713-0.68003 0.038 0.23623 0.0044-0.13281c0.0029-0.08684-0.0089-0.13281-0.0341-0.13281-0.02119 0-0.20049 0.16479-0.39844 0.36619l-0.3599 0.3662 0.10938 0.02032c0.06016 0.01117 0.24648 0.02217 0.41406 0.02443l0.30469 0.0041zm-12.275 0.18153c0-0.0076-0.014063-0.02247-0.03125-0.03309s-0.03125-0.0044-0.03125 0.01378c0 0.0182 0.014063 0.03309 0.03125 0.03309s0.03125-0.0062 0.03125-0.01378zm10.344-1.8513c0-0.02891-0.74512-0.79428-1.6558-1.7008-1.6323-1.6248-2.2079-2.1746-2.2416-2.1409-0.0094368 0.0094368 0.067757 0.11255 0.17154 0.22915 0.29565 0.33215 3.6523 3.6651 3.6911 3.6651 0.0191 0 0.03473-0.02366 0.03473-0.05257zm-9.1562-0.08805c0.021397-0.02578 0.02797-0.04687 0.014608-0.04687s0.00249-0.03164 0.035236-0.07031l0.059531-0.07031-0.069576 0.05886c-0.038267 0.03238-0.06258 0.07018-0.05403 0.08402 0.00855 0.01383-0.00936 0.03965-0.039799 0.05737-0.03044 0.01772-0.039489 0.03265-0.020109 0.03317 0.01938 5.22e-4 0.052742-0.02014 0.074139-0.04593zm0.34774-0.44531c0.038871-0.04956 0.037766-0.05067-0.011799-0.0118-0.030078 0.02359-0.054687 0.0482-0.054687 0.05469 0 0.02572 0.025662 0.0092 0.066486-0.04289zm3.3125-3.2187c0.038871-0.049564 0.037766-0.05067-0.011799-0.011799-0.052054 0.04082-0.068608 0.066482-0.042888 0.066482 0.00649 0 0.031098-0.024609 0.054687-0.054687zm0.88832-0.82304c0.032204-0.052107-0.040225-0.11186-0.083335-0.06875-0.03606 0.03606-0.013491 0.10272 0.034777 0.10272 0.015159 0 0.03701-0.015288 0.048558-0.033973zm6.4514-6.2491v-0.40441h-0.39062c-0.26707 0-0.39062 0.011051-0.39062 0.034937 0 0.074313 0.70628 0.82021 0.75066 0.79278 0.0174-0.010752 0.03059-0.19328 0.03059-0.42331z" fill="#000" stroke="#000" stroke-width=".03125"/>
    <path d="m0.17215 13.539c2.7478e-4 -2.363 0.009008-2.6641 0.077287-2.6641 0.040985 0 0.59867 0.46599 1.3597 1.1362 0.26629 0.23449 0.49998 0.42634 0.51933 0.42634 0.019342 0 1.01-0.98031 2.2015-2.1785l2.1663-2.1785-1.4981-1.4821c-1.9517-1.9308-2.9757-2.9111-3.04-2.9105-0.028525 2.785e-4 -0.41556 0.33778-0.86008 0.75-0.44452 0.41222-0.81983 0.74949-0.83402 0.74949-0.055855 0-0.063114-0.35057-0.054353-2.625l0.0090885-2.3594 1.8594-0.0096952c2.0667-0.010776 3.0626 0.011271 3.0623 0.067797-1.891e-4 0.037284-0.49773 0.5961-1.2113 1.3605l-0.41996 0.44987 4.5056 4.5056 0.20704-0.20266c0.50393-0.49326 4.0876-4.1472 4.1295-4.2106 0.0592-0.089384 0.08908-0.051124-0.83355-1.0674-0.39648-0.4367-0.72087-0.80458-0.72087-0.81751 0-0.051237 0.60832-0.063222 2.75-0.054178l2.2344 0.009436 0.0029 0.25c0.0016 0.1375-4e-3 1.2462-0.01251 2.4637-0.01251 1.7942-0.02326 2.2167-0.0567 2.2296-0.05589 0.021446-0.10479-0.019219-0.95859-0.79706-0.40895-0.3726-0.75653-0.68199-0.77237-0.68753-0.035524-0.012427-4.4059 4.3344-4.4059 4.3821 0 0.050563 4.393 4.4346 4.4299 4.4209 0.01725-0.0064 0.42143-0.38787 0.89817-0.84764 0.47674-0.45976 0.87921-0.83594 0.89436-0.83594 0.01567 0 0.02755 1.0855 0.02755 2.5174v2.5174l-2.3568-0.0096c-1.2962-0.0053-2.3673-0.0201-2.3801-0.03292-0.04553-0.04557 0.05095-0.17334 0.70212-0.92982 0.36247-0.42109 0.6592-0.78186 0.6594-0.8017 3.33e-4 -0.03413-4.1522-4.1594-4.3661-4.3375l-0.10085-0.083941-4.3483 4.2963 0.16769 0.17434c0.09223 0.09589 0.50074 0.51582 0.90779 0.93319 0.40706 0.41737 0.7401 0.77245 0.7401 0.78906 0 0.01921-0.96162 0.03021-2.6406 0.03021h-2.6406zm13.708 1.0333c-0.01176-0.01176 0.02457-0.07153 0.08073-0.13281l0.10211-0.11143-0.11719 0.10769c-0.12044 0.11068-0.14459 0.15793-0.08073 0.15793 0.02005 0 0.02684-0.0096 0.01508-0.02138zm0.26097-0.33799c0.04037-0.04297 0.06636-0.07813 0.05777-0.07813-0.0086 0-0.04865 0.03516-0.08902 0.07813s-0.06636 0.07813-0.05777 0.07813c0.0086 0 0.04865-0.03516 0.08902-0.07813zm-1.526-1.6016c-0.091944-0.1284-3.667-3.6794-3.748-3.7227-0.054526-0.029181-0.06975-0.028972-0.06975 9.59e-4 0 0.058459 3.7691 3.8077 3.8278 3.8077 0.04527 0 0.04406-0.01027-0.01012-0.08594zm-4.5568-4.5224c0.022039-0.057433-0.036553-0.09724-0.079667-0.054126-0.033357 0.033357-0.00936 0.1 0.036001 0.1 0.014334 0 0.033984-0.020644 0.043666-0.045874zm6.451-6.2798-0.008786-0.34621-0.33681-0.0088786c-0.18524-0.00488-0.3595 0.00382-0.38723 0.019341-0.05657 0.031656 0.01354 0.12013 0.45602 0.57551 0.21717 0.2235 0.2373 0.23697 0.26047 0.17433 0.01381-0.037337 0.02116-0.22368 0.01633-0.41409z" fill="#000" stroke="#000" stroke-width=".03125"/>
    <path d="m1.1016 15.885-0.92969-0.011109v-2.3545c0-1.295 0.008943-2.4198 0.019873-2.4995 0.011331-0.08267 0.036309-0.14499 0.058114-0.14499 0.045598 0 0.47396 0.35466 1.2742 1.0549l0.58651 0.51328 0.50858-0.48494c0.27972-0.26672 1.2642-1.2512 2.1877-2.1876l1.6792-1.7027-1.9305-1.8978c-1.8643-1.8327-2.5457-2.4826-2.6031-2.4826-0.015004 0-0.40408 0.34581-0.86462 0.76846-0.76478 0.70187-0.83912 0.76212-0.8579 0.69531-0.011306-0.040232-0.021958-1.1735-0.023672-2.5185l-0.003115-2.4453h2.1358c2.2382 0 2.8017 0.015411 2.8017 0.076623 0 0.038171-0.40759 0.49816-1.1636 1.3132l-0.46302 0.49917 4.5066 4.5017 1.1556-1.1719c1.9133-1.9402 3.143-3.2062 3.1783-3.2722 0.029489-0.055101-0.059291-0.16525-0.76215-0.94555-0.43754-0.48575-0.79553-0.89371-0.79553-0.90657 0-0.053511 0.40375-0.06313 2.65-0.06313h2.36l-0.0222 2.4609c-0.01367 1.5153-0.03384 2.4726-0.05248 2.4912-0.048512 0.04854-0.13276-0.018486-0.9219-0.73343-0.40788-0.36953-0.76566-0.68889-0.79506-0.70968-0.046766-0.033078-0.32761 0.23491-2.2453 2.1424-1.2055 1.1991-2.1918 2.1941-2.1918 2.211 0 0.016916 0.99087 1.0198 2.2019 2.2287l2.2019 2.198 0.10783-0.08992c0.05931-0.04946 0.46178-0.43094 0.89438-0.84773 0.4326-0.4168 0.79773-0.75781 0.81139-0.75781 0.03082 0 0.07989 4.9943 0.04937 5.0248-0.02595 0.02594-4.1694 0.01279-4.5247-0.01436-0.1716-0.01311-0.24219-0.03064-0.24219-0.06013 0-0.05187 0.14855-0.23573 0.84029-1.0401l0.54752-0.63663-4.4537-4.4382-0.31788 0.30887c-0.17483 0.16988-1.1572 1.1386-2.183 2.1526l-1.8651 1.8438 0.90346 0.93046c0.4969 0.51175 0.90346 0.94417 0.90346 0.96094 0 0.01922-0.40112 0.03051-1.0859 0.03056-0.59727 4.9e-5 -1.3672 0.004839-1.7109 0.010649-0.34375 0.005809-1.0434 0.005563-1.5547-5.48e-4zm11.539-3.2012c0-0.07888-3.7632-3.8062-3.8028-3.7666-0.028476 0.028476 1.1643 1.248 2.5133 2.5695 0.69154 0.67751 1.2646 1.2318 1.2734 1.2318 0.0088 0 0.01609-0.01565 0.01609-0.03478zm-4.5938-4.5921c0-0.016173-0.014062-0.029406-0.03125-0.029406s-0.03125 0.021924-0.03125 0.048719c0 0.026796 0.014062 0.040028 0.03125 0.029406 0.017188-0.010623 0.03125-0.032546 0.03125-0.048719zm6.463-6.3003c-0.0054-0.14037-0.02068-0.26606-0.03394-0.2793-0.03645-0.036424-0.37381-0.053791-0.56964-0.029325l-0.17343 0.021669 0.09112 0.11484c0.05012 0.063163 0.21386 0.24141 0.36388 0.39609l0.27276 0.28125 0.02954-0.125c0.01625-0.06875 0.02511-0.23985 0.0197-0.38023z" fill="#000" stroke="#000" stroke-width=".03125"/>
    <path d="m0.5282 15.885-0.3468-0.01245-0.020972-0.41308c-0.022417-0.44154 0.003471-4.2298 0.030425-4.4521 0.01035-0.08538 0.031733-0.13281 0.059874-0.13281 0.050236 0 0.33052 0.23014 1.232 1.0116l0.63901 0.55394 2.1657-2.1655c1.1911-1.191 2.1657-2.1806 2.1657-2.199 0-0.034939-3.6698-3.6462-4.1859-4.1191-0.16239-0.1488-0.30581-0.26679-0.31872-0.26219-0.022541 0.0080225-0.31768 0.27289-1.2599 1.1307-0.36567 0.3329-0.44001 0.3881-0.45874 0.3406-0.012293-0.031176-0.023339-1.1641-0.024547-2.5176l-0.0021964-2.4609 2.2109 1.8731e-4c2.2581 1.913e-4 2.7266 0.013074 2.7266 0.074987 0 0.044648-0.21044 0.28579-0.96544 1.1063-0.33698 0.36621-0.61621 0.67561-0.62052 0.68756-0.00431 0.011948 1.0014 1.0309 2.2349 2.2643l2.2428 2.2426 1.9536-1.9926c2.5669-2.6182 2.391-2.4299 2.3501-2.516-0.018402-0.038715-0.33809-0.40789-0.71041-0.82039-0.76412-0.84658-0.84667-0.9456-0.81488-0.97741 0.01242-0.012423 1.1416-0.026511 2.5093-0.031307l2.4867-0.00872-0.01807 2.4578c-0.01224 1.6652-0.02874 2.4685-0.05116 2.4909-0.0233 0.0233-0.05411 0.021747-0.10404-0.00525-0.03902-0.021085-0.42148-0.35408-0.84991-0.73999-0.42843-0.38591-0.79252-0.70165-0.80909-0.70165-0.01657 0-1.0149 0.98252-2.2185 2.1834l-2.1884 2.1834 4.4185 4.4185 0.19734-0.18168c0.10854-0.09993 0.50921-0.48051 0.89038-0.84574 0.38117-0.36523 0.70515-0.66406 0.71996-0.66406 0.03188 0 0.0742 2.9565 0.05995 4.1875l-0.01 0.85938-2.1875-0.0086c-2.3328-0.0092-2.5781-0.01736-2.5781-0.08554 0-0.05462 0.24114-0.35612 0.87393-1.0927l0.50957-0.59314-2.2081-2.1959c-1.2144-1.2078-2.2254-2.196-2.2465-2.196-0.035259 0-4.3061 4.1979-4.3299 4.2559-0.00574 0.01401 0.36233 0.40866 0.81793 0.87699 0.82534 0.84842 0.97737 1.0146 0.95176 1.0402-0.018111 0.01811-4.4788 0.04075-4.9186 0.02496zm11.659-3.6828c-0.47202-0.49663-3.0288-3.0209-3.1814-3.1409-0.046361-0.036468-0.084293-0.053493-0.084293-0.037833 0 0.04269 3.6879 3.7048 3.7093 3.6834 0.01016-0.01016-0.18946-0.23726-0.4436-0.50465zm-4.1407-4.1089c0-0.017188-0.014062-0.03125-0.03125-0.03125s-0.03125 0.014062-0.03125 0.03125 0.014062 0.03125 0.03125 0.03125 0.03125-0.014062 0.03125-0.03125zm6.4471-6.0211c0.01007-0.097559 0.01017-0.2645 2.29e-4 -0.37098l-0.01808-0.1936-0.18674-0.019518c-0.21021-0.021972-0.52372 0.00612-0.52372 0.046926 0 0.033004 0.65547 0.71456 0.68721 0.71456 0.01254 0 0.03103-0.079821 0.0411-0.17738z" fill="#000" stroke="#000" stroke-width=".03125"/>
    <path d="m0.30897 15.886-0.12853-0.014124-0.019911-0.1905c-0.043709-0.41819 0.001515-4.7446 0.050102-4.7931 0.012726-0.01269 0.050565-0.01032 0.084086 0.0053 0.075053 0.03491 0.53177 0.41494 1.2491 1.0393 0.29909 0.26036 0.56048 0.47337 0.58088 0.47337 0.020395 0 1.0058-0.97261 2.1898-2.1614l2.1527-2.1614-1.5617-1.5472c-1.7765-1.7601-2.8804-2.8176-2.9411-2.8176-0.04108 0-0.25468 0.18586-1.2147 1.0569-0.36121 0.32776-0.50024 0.43649-0.51942 0.40625-0.014401-0.022714-0.0264-1.1558-0.026663-2.5179l-4.7852e-4 -2.4766 2.2578 2.2216e-4c2.3356 2.2981e-4 2.6797 0.010525 2.6797 0.080174 0 0.044083-0.30586 0.39293-1.0895 1.2427l-0.51412 0.55747 2.2315 2.2321c1.2273 1.2277 2.2464 2.2284 2.2646 2.2238 0.031262-0.0078871 3.2198-3.2402 3.9784-4.033l0.35247-0.36837-0.05701-0.089768c-0.031355-0.049372-0.38396-0.45676-0.78357-0.90531-0.39961-0.44855-0.72656-0.82793-0.72656-0.84308 0-0.015143 0.0457-0.035514 0.10156-0.045269 0.05586-0.009756 1.1773-0.020915 2.4922-0.0248l2.3906-0.007062-0.0027 2.4746c-0.0015 1.361-0.01232 2.4842-0.02405 2.4959-0.051583 0.051565-0.22126-0.079373-0.95936-0.74031-0.43187-0.38672-0.79691-0.70745-0.8112-0.71274-0.033775-0.012494-4.3746 4.3037-4.3746 4.3497 0 0.051653 4.3617 4.4041 4.3997 4.3903 0.01779-0.0064 0.4012-0.36326 0.85202-0.79295 0.8417-0.80225 0.9274-0.87821 0.95718-0.84843 0.0095 0.0095 0.02479 1.1522 0.03393 2.5393l0.01661 2.5219-2.2781-0.02208c-1.253-0.01215-2.3309-0.03017-2.3953-0.04006-0.0758-0.01163-0.11719-0.03466-0.11719-0.06522 0-0.05598 0.15798-0.2535 0.85513-1.0692l0.52032-0.60878-0.47679-0.4793c-0.26223-0.26361-1.2608-1.2535-2.219-2.1997l-1.7422-1.7204-0.16408 0.14315c-0.090244 0.078735-1.0691 1.0402-2.1753 2.1366l-2.0112 1.9935 0.81741 0.84375c0.84241 0.86956 0.9922 1.0357 0.9614 1.0665-0.021351 0.02135-4.9489 0.043-5.1349 0.02256zm11.763-3.7854c-0.6507-0.65969-2.7194-2.7058-2.961-2.9287l-0.16937-0.15625 0.15903 0.1875c0.25753 0.30364 3.4805 3.4886 3.5063 3.465 0.0072-0.0065-0.23358-0.26194-0.53501-0.56754zm-4.0249-4.0068c0-0.017188-0.014062-0.03125-0.03125-0.03125s-0.03125 0.014062-0.03125 0.03125 0.014062 0.03125 0.03125 0.03125 0.03125-0.014062 0.03125-0.03125zm6.4307-6.2109-0.008804-0.36719-0.35156-0.008836c-0.19336-0.00486-0.35156 3e-3 -0.35156 0.017476 0 0.037468 0.65546 0.72573 0.69114 0.72573 0.01744 0 0.02597-0.15078 0.02078-0.36719z" fill="#000" stroke="#000" stroke-width=".03125"/>
    <path d="m0.22818 15.887c-0.035407-0.01059-0.060382-0.06462-0.075041-0.16233-0.026731-0.17819 0.007921-4.6802 0.036786-4.7793 0.04167-0.143 0.072285-0.12145 1.1772 0.82863l0.74215 0.63813 0.34826-0.32322c0.19154-0.17777 1.169-1.1526 2.1722-2.1664l1.8239-1.8432-0.55497-0.55708c-0.77096-0.7739-3.4807-3.4144-3.723-3.6279-0.10959-0.096563-0.20973-0.17557-0.22253-0.17557s-0.32264 0.2707-0.68852 0.60156c-0.94836 0.85757-1.0077 0.90657-1.0359 0.85612-0.018501-0.03306-0.034766-2.8885-0.02686-4.7155l0.0011832-0.27344 2.3047 2.7163e-4c2.3338 2.7506e-4 2.6328 0.009069 2.6328 0.077437 0 0.050154-0.27107 0.36381-0.99756 1.1543l-0.60093 0.65385 4.4731 4.4731 0.39288-0.39038c0.55998-0.55642 3.7364-3.8053 3.8546-3.9425l0.09877-0.11467-0.18072-0.21514c-0.099397-0.11833-0.44088-0.50749-0.75884-0.86481-0.60399-0.67873-0.64406-0.7289-0.60969-0.76336 0.02226-0.022316 2.1997-0.057669 3.9494-0.064122l1.0428-0.003846-0.0125 2.4837c-8e-3 1.5899-0.0237 2.4949-0.04362 2.5149-0.05054 0.050545-0.16896-0.041785-0.9752-0.76036-0.417-0.37166-0.77325-0.67575-0.79166-0.67575-0.06512 0-4.372 4.2728-4.372 4.3374 0 0.012637 0.98322 1.0055 2.1849 2.2064l2.1849 2.1835 0.07939-0.06245c0.04366-0.03435 0.43277-0.39838 0.86467-0.80897 0.79833-0.75892 0.86268-0.8147 0.89851-0.77887 0.01114 0.01114 0.02584 1.1538 0.03266 2.5393l0.0124 2.519-2.2952-0.02049c-1.2624-0.01127-2.3398-0.02942-2.3944-0.04033-0.05673-0.01135-0.09919-0.03925-0.09919-0.06518 0-0.06114 0.17614-0.28431 0.80895-1.025 0.2937-0.34375 0.53418-0.63966 0.5344-0.65758 2.23e-4 -0.01792-0.99176-1.0138-2.2044-2.213l-2.2048-2.1804-0.58426 0.56389c-0.32134 0.31014-1.2984 1.2708-2.1712 2.1349l-1.587 1.571 0.84728 0.875c0.86404 0.89231 0.96081 1.0013 0.92297 1.0391-0.024611 0.02461-5.131 0.04391-5.2119 0.0197zm11.022-4.6077c-1.185-1.1874-2.2287-2.194-1.9741-1.904 0.22704 0.25853 3.032 3.0291 3.0678 3.0301 0.0171 5.15e-4 -0.47509-0.50623-1.0938-1.1261zm3.2279-9.3865c0.0058-0.19826-0.0037-0.32067-0.02726-0.34903-0.04376-0.052729-0.60674-0.062955-0.63848-0.011598-0.02469 0.039953 0.57541 0.69293 0.62249 0.67734 0.0209-0.00692 0.03778-0.13052 0.04326-0.31671z" fill="#000" stroke="#000" stroke-width=".03125"/>
    <path d="m0.1689 15.823c-0.039309-0.10002-0.021663-4.7964 0.018387-4.8936 0.052646-0.12782 0.05535-0.1259 1.1532 0.81569l0.77797 0.66725 2.1517-2.1515c1.1834-1.1833 2.1517-2.1681 2.1517-2.1883 0-0.036947-3.6016-3.5778-4.1546-4.0845-0.16239-0.1488-0.30587-0.26678-0.31885-0.26219-0.01298 0.0045953-0.3282 0.28257-0.70049 0.61773-0.79244 0.7134-0.98558 0.87665-1.0154 0.85824-0.029239-0.018071-0.074299-4.6897-0.046991-4.8718l0.0214-0.1427h2.3218c1.277 0 2.3871 0.008943 2.4668 0.019873 0.090364 0.012386 0.14499 0.03563 0.14499 0.061698 0 0.052272-0.20442 0.28991-0.96365 1.1202-0.32937 0.36022-0.59885 0.66417-0.59885 0.67546 0 0.023172 3.1047 3.146 3.9245 3.9475l0.53389 0.52193 1.9676-2.0093c2.5053-2.5584 2.3421-2.3832 2.3002-2.4704-0.018552-0.038571-0.34552-0.42169-0.7266-0.85138-0.73757-0.83165-0.80195-0.91109-0.76685-0.94629 0.04987-0.050007 4.9713-0.095254 4.9924-0.0459 0.02214 0.051696-0.02469 4.9324-0.04768 4.9686-0.037348 0.058855-0.14947-0.011536-0.47429-0.29777-0.15469-0.13631-0.50625-0.44659-0.78125-0.68951-0.275-0.24292-0.51198-0.44182-0.52662-0.44198-0.014639-1.678e-4 -1.0042 0.97423-2.199 2.1653l-2.1724 2.1656 1.5308 1.5453c0.84193 0.84991 1.8326 1.8363 2.2014 2.192l0.67063 0.64674 0.82572-0.78179c0.85691-0.81131 0.95321-0.89462 0.99076-0.85707 0.01235 0.01235 0.0273 1.1533 0.03322 2.5355l0.01076 2.513-1.6045-0.0034c-2.0053-0.0042-3.1367-0.03181-3.1825-0.07768-0.04446-0.04454 0.08953-0.22163 0.79944-1.0566l0.55541-0.65322-2.1933-2.185c-1.2815-1.2766-2.2125-2.1807-2.2394-2.1749-0.067264 0.014689-4.3006 4.1903-4.2903 4.2319 0.00477 0.01929 0.37952 0.42025 0.83277 0.89102 0.84052 0.87301 0.93576 0.9815 0.89629 1.021-0.012349 0.01235-1.1953 0.02732-2.6289 0.03326l-2.6064 0.0108zm11.206-4.4192c-0.32639-0.32772-0.88876-0.87876-1.2497-1.2245-0.45266-0.43364-0.2782-0.24879 0.56235 0.59586 0.67023 0.6735 1.2326 1.2245 1.2497 1.2245s-0.23596-0.26814-0.56235-0.59586zm3.1005-9.5737c-0.0039-0.1449-0.01771-0.27403-0.03063-0.28694-0.03775-0.037754-0.54059-0.054053-0.60229-0.019523-0.0492 0.027535-0.01617 0.072453 0.26825 0.36479 0.37367 0.38407 0.37665 0.38359 0.36467-0.058325z" fill="#000" stroke="#000" stroke-width=".03125"/>
    <path d="m0.15401 15.796c-0.011384-0.06068-0.015239-1.1784-0.008566-2.4839 0.013787-2.6972-0.001717-2.5483 0.24653-2.3669 0.076604 0.05598 0.48855 0.40062 0.91545 0.76585 0.42689 0.36524 0.79275 0.66406 0.81303 0.66406s0.99964-0.96346 2.1764-2.141l2.1395-2.141-0.95254-0.95447c-0.9412-0.94311-3.1541-3.0984-3.3834-3.2954-0.091184-0.078314-0.13199-0.095289-0.17776-0.073951-0.032676 0.015232-0.36382 0.30051-0.73587 0.63394-0.8599 0.77066-0.92488 0.82439-0.95753 0.79175-0.014782-0.014782-0.030222-1.144-0.034312-2.5093l-0.0074351-2.4824 2.3438-0.0090892c1.2891-0.004999 2.4035-6.218e-4 2.4766 0.009727 0.083359 0.01181 0.13281 0.034954 0.13281 0.062154 0 0.023836-0.068551 0.12571-0.15233 0.22639-0.14058 0.16892-1.0549 1.1815-1.3126 1.4537l-0.11162 0.11789 2.2179 2.218c1.2198 1.2199 2.232 2.218 2.2492 2.2178 0.050159-3.369e-4 4.297-4.3423 4.297-4.3933 0-0.032707-0.18153-0.24989-0.70307-0.84114-0.75619-0.85728-0.82818-0.94239-0.82818-0.97921 0-0.019251 0.03466-0.043701 0.07703-0.054334s1.1709-0.021448 2.5078-0.024033l2.4308-0.0047-0.0087 2.0156c-0.0091 2.0886-0.02992 3-0.06869 3-0.05787 0-0.3305-0.22087-0.98321-0.79654-0.38954-0.34357-0.72768-0.63554-0.75143-0.64883-0.03071-0.017186-0.66634 0.59508-2.2015 2.1206-1.1871 1.1796-2.1583 2.1615-2.1583 2.182 0 0.054264 4.3006 4.3459 4.3549 4.3459 0.02526 0 0.4175-0.34972 0.87165-0.77716 0.83097-0.78209 0.91681-0.85548 0.95545-0.81687 0.0116 0.01159 0.02564 1.1519 0.0312 2.5341l0.0101 2.513-1.7601-3e-3c-2.0197-0.0035-2.9757-0.02807-3.0254-0.07786-0.04508-0.04513 0.09762-0.23565 0.79268-1.0583l0.55325-0.6548-0.93094-0.93318c-0.51206-0.51327-1.504-1.4965-2.2044-2.185l-1.2735-1.2518-0.25779 0.23487c-0.14178 0.12918-1.1141 1.0836-2.1608 2.121l-1.903 1.8861 0.87952 0.92024c0.48374 0.50613 0.87952 0.9364 0.87952 0.95616 0 0.06127-0.59196 0.07643-2.9908 0.07658l-2.2876 1.43e-4zm11.173-4.4389c-0.12848-0.13019-0.36016-0.35071-0.51484-0.49005-0.20574-0.18532-0.15131-0.12177 0.20275 0.23671 0.2662 0.26952 0.49788 0.49004 0.51484 0.49004 0.01697 0-0.07427-0.10652-0.20275-0.23671zm-1.093-1.0534c0-0.0049-0.08086-0.08574-0.17969-0.17969l-0.17969-0.17081 0.17081 0.17969c0.15869 0.16694 0.18857 0.194 0.18857 0.17081zm4.227-8.261c9e-3 -0.079711 9e-3 -0.22589 2.3e-5 -0.32483l-0.01631-0.1799-0.22433-0.021021c-0.22265-0.020864-0.39259-0.00115-0.39259 0.045538 0 0.032498 0.56193 0.62515 0.59274 0.62515 0.01327 0 0.03148-0.065218 0.04046-0.14493z" fill="#000" stroke="#000" stroke-width=".03125"/>
    <path d="m14.14 1.8565c-0.30636-0.31387-0.2995-0.34606 0.065967-0.30935l0.2163 0.021722v0.27808c0 0.15294-0.0045 0.27808-0.01008 0.27808-0.0055 0-0.12803-0.12084-0.27218-0.26853z" fill="#000" stroke="#000" stroke-width=".03125"/>
    <path d="m14.141 1.8244-0.23412-0.24626 0.18594-0.00957c0.28594-0.014711 0.32952 0.00432 0.32737 0.14297-9.9e-4 0.064126-0.01154 0.17116-0.02344 0.23785l-0.021634 0.12126z" fill="#000" stroke="#000" stroke-width=".03125"/>
    <path d="m14.148 1.8359c-0.12454-0.12537-0.22643-0.23876-0.22643-0.25197 0-0.013209 0.10898-0.01991 0.24219-0.01489l0.24219 0.00913 0.0094 0.14571c0.0052 0.08014-0.0019 0.18942-0.01576 0.24284l-0.02517 0.097134z" fill="#000" stroke="#000" stroke-width=".03125"/>
    <path d="m14.024 1.5408c0.03041-0.00792 0.07259-0.0074 0.09375 0.00116s-0.0037 0.015043-0.05528 0.014406c-0.05156-6.369e-4 -0.06887-0.00764-0.03847-0.015564z" fill="#000" stroke="#000" stroke-width=".03125"/>
    <path d="m0.15405 15.83c-0.01046-0.04168-0.014244-1.1591-0.008408-2.4833 0.012181-2.764-0.006947-2.5941 0.26876-2.3869 0.087515 0.06576 0.4983 0.40746 0.91285 0.75934 0.41455 0.35188 0.76869 0.64498 0.78697 0.65134 0.018283 0.0064 0.99718-0.95459 2.1753-2.1354l2.1421-2.147-0.60645-0.60875c-0.75166-0.75451-3.4533-3.3879-3.6778-3.5849-0.090808-0.07968-0.17651-0.14487-0.19046-0.14487-0.013943 0-0.31933 0.26205-0.67864 0.58234-0.88677 0.79046-1.0155 0.89609-1.05 0.86161-0.017036-0.017037-0.036735-1.0562-0.047737-2.5183l-0.01873-2.4893 2.4712 0.00837c1.3591 0.004604 2.4816 0.018858 2.4945 0.031676 0.05822 0.058243-0.10139 0.25324-1.0768 1.3155l-0.48326 0.52632 4.4533 4.4474 1.2685-1.2812c0.69766-0.70469 1.6667-1.6937 2.1535-2.1978 0.73662-0.76284 0.88006-0.92577 0.85545-0.97175-0.01626-0.030381-0.36056-0.43358-0.76511-0.89599-0.40455-0.46241-0.73569-0.85682-0.73585-0.87647-1.65e-4 -0.019646 0.02431-0.045666 0.05439-0.057824s1.1626-0.029793 2.5167-0.039189l2.462-0.017084-0.0176 2.0749c-0.020961 2.4694-0.036745 2.9655-0.09436 2.9655-0.05274 0-0.2761-0.18293-0.96812-0.7929-0.76165-0.67134-0.74749-0.66102-0.82878-0.60408-0.10209 0.071504-3.9821 3.9135-4.1462 4.1055l-0.14587 0.17074 1.9197 1.9218c1.0558 1.057 2.0415 2.0337 2.1903 2.1706l0.27065 0.24883 0.86998-0.81331c0.47849-0.44732 0.8862-0.81332 0.90603-0.81334 0.05884-3.8e-5 0.07282 0.49206 0.08115 2.8554l0.0078 2.2148-2.3438-0.01349c-2.5483-0.01467-2.5251-0.013-2.4405-0.17509 0.03946-0.07565 0.52286-0.66607 1.1181-1.3657l0.21244-0.24967-0.27315-0.27643c-0.96408-0.97563-4.1047-4.0524-4.1365-4.0524-0.049564 0-0.20063 0.14563-2.4413 2.3534l-1.8671 1.8397 0.19527 0.21159c0.1074 0.11637 0.50113 0.53198 0.87496 0.92358s0.67969 0.72899 0.67969 0.74976c0 0.06692-0.41486 0.07819-2.8791 0.07819h-2.4009zm14.292-13.979-0.008944-0.30469-0.3125-0.00638 0.29688 0.02543-0.0022 0.20923c-0.0037 0.35693-0.01741 0.36136-0.2653 0.086078-0.24877-0.27627-0.2558-0.28834-0.17954-0.3081 0.03103-0.00804 0.01022-0.016256-0.04625-0.01825-0.08887-0.00314-0.09861 0.00372-0.07253 0.051063 0.0535 0.097084 0.51762 0.57062 0.55913 0.57046 0.03061-1.134e-4 0.03806-0.072767 0.03125-0.30484z" fill="#000" stroke="#000" stroke-width=".03125"/>
    <path d="m0.15306 15.862c-0.009271-0.02416-0.012345-1.14-0.006832-2.4796 0.010829-2.6313 0.007634-2.5835 0.16727-2.4992 0.039947 0.0211 0.25997 0.19546 0.48894 0.38746 0.22897 0.19201 0.61855 0.51883 0.86573 0.72628l0.44942 0.37718 1.0193-1.0059c0.56063-0.55324 1.5291-1.5218 2.1522-2.1523l1.1329-1.1464-1.4923-1.4638c-2.836-2.7819-2.9275-2.8681-3.0025-2.8269-0.028759 0.01583-0.3476 0.29158-0.70854 0.61278-0.83186 0.74027-0.954 0.83844-0.99374 0.79871-0.019916-0.019916-0.036707-0.92599-0.046554-2.5121l-0.015402-2.481 1.106-0.017827c1.4755-0.023783 3.8257 0.011717 3.8724 0.058494 0.043273 0.043338-0.2003 0.33968-0.98056 1.193-0.30331 0.33171-0.55148 0.62158-0.55148 0.64417 0 0.022583 0.99304 1.0289 2.2068 2.2363l2.2068 2.1952 0.24873-0.24565c0.29668-0.29302 3.5509-3.6228 3.8363-3.9254 0.17706-0.18773 0.19533-0.21873 0.16575-0.28125-0.01828-0.038648-0.35842-0.44274-0.75586-0.89799-0.39744-0.45524-0.71856-0.84899-0.71359-0.875 0.01275-0.06676 0.65503-0.085678 3.0676-0.090351l1.9655-0.0038071-0.020649 2.2109c-0.02262 2.4214-0.03664 2.8203-0.09913 2.8203-0.05643 0-0.24719-0.15557-1.0274-0.83786-0.61616-0.53884-0.68948-0.59388-0.74909-0.56232-0.03634 0.01924-1.0223 0.98839-2.1911 2.1537l-2.125 2.1187 2.1631 2.1577c1.1897 1.1867 2.1819 2.1577 2.2048 2.1577 0.02291 0 0.32918-0.26832 0.6806-0.59627 0.86521-0.80741 1.0778-0.99748 1.1158-0.99748 0.05578 0 0.06734 0.4194 0.07663 2.7801l9e-3 2.2958-1.9724-0.0097c-1.909-0.0094-2.8008-0.03216-2.8413-0.07264-0.01072-0.01072-0.0025-0.05233 0.01833-0.09248 0.04601-0.08879 0.49592-0.64773 0.96431-1.198 0.19019-0.22344 0.346-0.42145 0.34624-0.44002 3.68e-4 -0.02835-2.8705-2.8794-4.0211-3.9933-0.34293-0.332-0.35102-0.33753-0.42184-0.28835-0.11674 0.081062-4.2128 4.118-4.2128 4.152 0 0.01704 0.20742 0.24826 0.46094 0.51382 0.84752 0.88778 1.2578 1.3349 1.2578 1.3708 0 0.06582-0.37046 0.07572-2.8337 0.07572-2.0754 0-2.4521-0.0067-2.4664-0.04393zm14.297-13.856-0.002819-0.11534-0.061134 0.21271-0.20177-0.19998c-0.11098-0.10999-0.21892-0.23871-0.23987-0.28604-0.03866-0.087337-0.08534-0.11512-0.08534-0.050791 0 0.05126 0.53561 0.59072 0.56715 0.57123 0.01463-0.00904 0.02533-0.068345 0.02378-0.13178z" fill="#000" stroke="#000" stroke-width=".03125"/>
    <path d="m0.16146 15.885c-0.028141-0.02814-0.022902-4.4982 0.005605-4.7823 0.012416-0.12376 0.032661-0.23511 0.04499-0.24744 0.040718-0.04072 0.15761 0.04751 1.0218 0.77117 0.47087 0.39431 0.87108 0.71692 0.88935 0.71692 0.04304 0 4.2674-4.2241 4.2674-4.2672 0-0.031399-3.2995-3.2772-4.027-3.9614-0.1953-0.18369-0.37451-0.33398-0.39824-0.33398-0.043315 0-0.22506 0.15266-0.9498 0.79778-0.59066 0.52577-0.7521 0.65012-0.79212 0.6101-0.023896-0.023896-0.037883-0.77821-0.046624-2.5143l-0.012487-2.4802 0.65218-0.023649c0.67073-0.024321 4.1083 0.006172 4.2667 0.037848 0.048732 0.009746 0.088604 0.029191 0.088604 0.043211 0 0.046181-0.36174 0.47233-0.96649 1.1386-0.32762 0.36094-0.59575 0.66514-0.59584 0.67601-9.28e-5 0.010869 0.99475 1.0142 2.2108 2.2296l2.2109 2.2098 0.71875-0.73372c2.435-2.4857 3.378-3.4583 3.4566-3.5652l0.08906-0.12103-0.05997-0.082092c-0.03298-0.04515-0.37056-0.44068-0.75018-0.87897-0.37962-0.43828-0.68619-0.81797-0.68128-0.84375 0.01333-0.069932 0.53095-0.085799 2.938-0.090059l2.0859-0.003692-0.0022 1.3203c-0.0027 1.655-0.04166 3.6714-0.07148 3.7013-0.045624 0.045667-0.23944-0.10153-0.95632-0.72632-0.40322-0.35143-0.75888-0.64712-0.79033-0.65711-0.066192-0.021008-0.97446 0.85333-3.0763 2.9614l-1.2873 1.2911 1.0529 1.0672c1.8782 1.9037 3.2806 3.2677 3.3308 3.2395 0.02484-0.014 0.3803-0.3363 0.7899-0.71622 0.83316-0.77278 0.92783-0.85611 0.97264-0.85611 0.05518 0 0.06705 0.37317 0.08773 2.7579l0.02025 2.336-1.5898-0.01591c-2.1198-0.02121-3.1511-0.04225-3.2117-0.06552-0.02749-0.01055-0.04998-0.03272-0.04998-0.04927 0-0.05812 0.18512-0.29778 0.76533-0.99078l0.58554-0.69937-1.0739-1.0766c-0.59062-0.5921-1.5771-1.5686-2.1922-2.17l-1.1183-1.0934-0.20979 0.18683c-0.22921 0.20411-3.9252 3.8531-4.0153 3.9641-0.05507 0.06793-0.051108 0.07306 0.53125 0.6875 0.96072 1.0137 1.1336 1.2033 1.1336 1.2437 0 0.02309-0.065638 0.04636-0.16406 0.05819-0.22026 0.02646-5.1011 0.0259-5.1276-5.84e-4z" fill="#000" stroke="#000" stroke-width=".03125"/>
</svg>
